<svg width="25" height="24" viewBox="0 0 25 24" fill="none" xmlns="http://www.w3.org/2000/svg">
<path d="M22.5009 12.8556C22.5009 15.1456 21.3209 17.1756 19.5009 18.4556L18.1609 21.4056C17.8509 22.0756 16.9509 22.2056 16.4809 21.6356L15.0009 19.8556C13.1409 19.8556 11.4309 19.2256 10.1309 18.1756L10.7309 17.4656C15.3509 17.1156 19.0009 13.4556 19.0009 8.99563C19.0009 8.23563 18.8909 7.48563 18.6909 6.76562C20.9609 7.96563 22.5009 10.2456 22.5009 12.8556Z" fill="#059A8E"/>
<path d="M16.8 6.07C15.63 3.67 13.02 2 10 2C5.86 2 2.5 5.13 2.5 9C2.5 11.29 3.68 13.32 5.5 14.6L6.84 17.55C7.15 18.22 8.05 18.34 8.52 17.78L9.07 17.12L10 16C14.14 16 17.5 12.87 17.5 9C17.5 7.95 17.25 6.96 16.8 6.07ZM12.5 9.75H7.5C7.09 9.75 6.75 9.41 6.75 9C6.75 8.59 7.09 8.25 7.5 8.25H12.5C12.91 8.25 13.25 8.59 13.25 9C13.25 9.41 12.91 9.75 12.5 9.75Z" fill="#059A8E"/>
</svg>
