<svg width="24" height="24" viewBox="0 0 24 24" fill="none" xmlns="http://www.w3.org/2000/svg">
<path d="M20.5511 9.43906H19.4511C19.3011 9.43906 19.1511 9.46906 19.0111 9.50906L14.0211 4.51906C14.5011 3.89906 14.4611 3.00907 13.8911 2.44906L13.1111 1.66906C12.5211 1.07906 11.4811 1.07906 10.8811 1.66906L10.1011 2.44906C9.5411 3.00907 9.5011 3.89906 9.9811 4.51906L4.99109 9.50906C4.8511 9.46906 4.7011 9.43906 4.5511 9.43906H3.4511C2.5811 9.43906 1.87109 10.1491 1.87109 11.0191V12.119C1.87109 12.989 2.5811 13.6991 3.4511 13.6991H4.5511C5.4211 13.6991 6.13109 12.989 6.13109 12.119V11.0191C6.13109 10.8691 6.10109 10.7191 6.0611 10.5791L11.0511 5.58907C11.3211 5.79907 11.6611 5.90906 12.0011 5.90906C12.3411 5.90906 12.6811 5.78906 12.9611 5.57906L17.9511 10.5691C17.9111 10.7091 17.8811 10.8591 17.8811 11.0091V12.1091C17.8811 12.9791 18.5911 13.6891 19.4611 13.6891H20.5611C21.4311 13.6891 22.1411 12.9791 22.1411 12.1091V11.0091C22.1211 10.1391 21.4211 9.43906 20.5511 9.43906Z" fill="#059A8E"/>
<path d="M15.751 16.5532L14.111 18.0031H9.85103L8.21103 16.5532C7.26103 15.7732 7.26103 15.1732 7.98103 14.2531L10.871 10.5931C11.071 10.3431 11.301 10.1731 11.561 10.0831C11.831 9.99312 12.121 9.99312 12.401 10.0831C12.6511 10.1731 12.881 10.3431 13.091 10.5931L15.9811 14.2531C16.7011 15.1631 16.6711 15.7331 15.751 16.5532Z" fill="#059A8E"/>
<path d="M13.2909 22.0038H10.7009C9.78087 22.0038 9.09087 21.2538 9.27087 20.4538L9.58088 19.0638C9.64088 18.7837 9.89087 18.5938 10.1709 18.5938H13.8208C14.1009 18.5938 14.3409 18.7837 14.4109 19.0638L14.7208 20.4538C14.9209 21.3037 14.2708 22.0038 13.2909 22.0038Z" fill="#059A8E"/>
</svg>
