<svg width="18" height="20" viewBox="0 0 18 20" fill="none" xmlns="http://www.w3.org/2000/svg">
<path d="M4.2909 15.2209C4.06597 14.9984 4.04545 14.6473 4.23058 14.4013L4.28617 14.337L13.0776 5.45105C13.3204 5.20567 13.7161 5.20356 13.9615 5.44633C14.1864 5.66887 14.207 6.01993 14.0218 6.2659L13.9662 6.3302L5.17477 15.2162C4.932 15.4615 4.53628 15.4637 4.2909 15.2209Z" fill="#545454" stroke="#545454"/>
<path d="M6.41288 6.56894C6.06772 6.57152 5.7858 6.29381 5.78322 5.94864C5.78086 5.63485 6.01017 5.37334 6.31121 5.32644L6.40351 5.31897L13.518 5.26564C13.8327 5.26328 14.0947 5.49391 14.1406 5.79598L14.1477 5.88858L14.171 13.0039C14.1721 13.349 13.8932 13.6298 13.548 13.6309C13.2342 13.6319 12.9737 13.4015 12.9281 13.1003L12.921 13.0079L12.8994 6.52028L6.41288 6.56894Z" fill="#545454" stroke="#545454"/>
</svg>
