<svg width="104" height="92" viewBox="0 0 104 92" fill="none" xmlns="http://www.w3.org/2000/svg">
<path d="M101.134 101.607H14.6607C13.0775 101.607 11.7939 100.323 11.7939 98.74V33.1387H104V98.74C104 100.323 102.717 101.607 101.134 101.607Z" fill="#D3D3D3"/>
<path d="M103.996 33.1387C103.996 62.5176 96.0086 81.8897 92.5774 88.8559C91.7084 90.6202 89.9138 91.7386 87.947 91.7386H3.54373C1.44501 91.7386 0.056005 89.557 0.947162 87.657C4.61872 79.8288 11.7901 60.9758 11.7901 33.1387H103.996Z" fill="#E8E8E8"/>
<path d="M104 33.1387H11.7939V11.3813C11.7939 9.79804 13.0775 8.51453 14.6607 8.51453H101.134C102.717 8.51453 104 9.79804 104 11.3813V33.1387Z" fill="#059A8E"/>
<path d="M20.1763 33.1387L15.9851 37.3298L11.7939 33.1387H20.1763Z" fill="#D3D3D3"/>
<path d="M28.5582 33.1387L24.3669 37.3298L20.1758 33.1387H28.5582Z" fill="#D3D3D3"/>
<path d="M36.939 33.1387L32.7478 37.3298L28.5566 33.1387H36.939Z" fill="#D3D3D3"/>
<path d="M45.3209 33.1387L41.1296 37.3298L36.9385 33.1387H45.3209Z" fill="#D3D3D3"/>
<path d="M53.7047 33.1387L49.5135 37.3298L45.3223 33.1387H53.7047Z" fill="#D3D3D3"/>
<path d="M62.0855 33.1387L57.8944 37.3298L53.7031 33.1387H62.0855Z" fill="#D3D3D3"/>
<path d="M70.4693 33.1387L66.2781 37.3298L62.0869 33.1387H70.4693Z" fill="#D3D3D3"/>
<path d="M78.8511 33.1387L74.66 37.3298L70.4688 33.1387H78.8511Z" fill="#D3D3D3"/>
<path d="M87.233 33.1387L83.0418 37.3298L78.8506 33.1387H87.233Z" fill="#D3D3D3"/>
<path d="M95.6168 33.1387L91.4256 37.3298L87.2344 33.1387H95.6168Z" fill="#D3D3D3"/>
<path d="M103.998 33.1387L99.8065 37.3298L95.6152 33.1387H103.998Z" fill="#D3D3D3"/>
<path d="M27.3462 22.3409C30.1504 22.3409 32.4238 20.0675 32.4238 17.2633C32.4238 14.459 30.1504 12.1857 27.3462 12.1857C24.5419 12.1857 22.2686 14.459 22.2686 17.2633C22.2686 20.0675 24.5419 22.3409 27.3462 22.3409Z" fill="#F1FCF3"/>
<path d="M27.3447 19.4092C25.6631 19.4092 24.2998 18.0459 24.2998 16.3643V3.75614C24.2998 2.07453 25.663 0.711304 27.3446 0.711304C29.0263 0.711304 30.3895 2.07453 30.3895 3.75614V16.3643C30.3896 18.0459 29.0264 19.4092 27.3447 19.4092Z" fill="#AEAEAE"/>
<path d="M47.7124 22.3409C50.5166 22.3409 52.79 20.0675 52.79 17.2633C52.79 14.459 50.5166 12.1857 47.7124 12.1857C44.9081 12.1857 42.6348 14.459 42.6348 17.2633C42.6348 20.0675 44.9081 22.3409 47.7124 22.3409Z" fill="#F1FCF3"/>
<path d="M47.7129 19.4092C46.0313 19.4092 44.668 18.0459 44.668 16.3643V3.75614C44.668 2.07453 46.0312 0.711304 47.7128 0.711304C49.3944 0.711304 50.7576 2.07453 50.7576 3.75614V16.3643C50.7578 18.0459 49.3945 19.4092 47.7129 19.4092Z" fill="#AEAEAE"/>
<path d="M68.0796 22.3409C70.8838 22.3409 73.1572 20.0675 73.1572 17.2633C73.1572 14.459 70.8838 12.1857 68.0796 12.1857C65.2753 12.1857 63.002 14.459 63.002 17.2633C63.002 20.0675 65.2753 22.3409 68.0796 22.3409Z" fill="#F1FCF3"/>
<path d="M68.0781 19.4092C66.3965 19.4092 65.0332 18.0459 65.0332 16.3643V3.75614C65.0332 2.07453 66.3964 0.711304 68.078 0.711304C69.7597 0.711304 71.1229 2.07453 71.1229 3.75614V16.3643C71.1229 18.0459 69.7597 19.4092 68.0781 19.4092Z" fill="#AEAEAE"/>
<path d="M88.4458 22.3409C91.2501 22.3409 93.5234 20.0675 93.5234 17.2633C93.5234 14.459 91.2501 12.1857 88.4458 12.1857C85.6415 12.1857 83.3682 14.459 83.3682 17.2633C83.3682 20.0675 85.6415 22.3409 88.4458 22.3409Z" fill="#F1FCF3"/>
<path d="M88.4443 19.4092C86.7627 19.4092 85.3994 18.0459 85.3994 16.3643V3.75614C85.3994 2.07453 86.7626 0.711304 88.4443 0.711304C90.1259 0.711304 91.4892 2.07453 91.4892 3.75614V16.3643C91.4892 18.0459 90.1259 19.4092 88.4443 19.4092Z" fill="#AEAEAE"/>
<path d="M41.5577 66.9265V48.1026H41.4608L35.5198 52.2032V47.812L41.5415 43.6308H46.3847V66.9265H41.5577ZM51.3409 50.6372C51.3409 46.2299 54.8603 43.1141 59.9457 43.1141C64.8534 43.1141 68.2275 45.9555 68.2275 49.8462C68.2275 52.7521 66.2902 54.9315 63.7233 57.4823L58.0407 62.9551V63.052H68.5504V66.9265H51.6154V63.6493L60.3977 55.1898C62.7547 52.8328 63.4812 51.6543 63.4812 50.0399C63.4812 48.2964 61.9475 46.908 59.7842 46.908C57.5241 46.908 55.8612 48.4901 55.8612 50.6372V50.718H51.3409V50.6372Z" fill="#545454"/>
<path d="M19.9922 86.6119L22.6812 79.332H23.3723V80.4873H23.0948L20.9457 86.6119H19.9922ZM21.2131 84.5284L21.5006 83.7565H24.7748L25.0624 84.5284H21.2131ZM25.3146 86.6119L23.1604 80.4873V79.332H23.5792L26.2681 86.6119H25.3146ZM28.9067 86.7078C28.5031 86.7078 28.1617 86.6304 27.8825 86.4757C27.6068 86.3176 27.3982 86.0889 27.257 85.7896C27.1191 85.4903 27.0501 85.1321 27.0501 84.715V81.2188H27.928V84.5132C27.928 84.9875 28.0238 85.3423 28.2155 85.5777C28.4072 85.8131 28.7167 85.9309 29.1438 85.9309C29.3759 85.9309 29.581 85.8955 29.7593 85.8249C29.9375 85.7543 30.0889 85.6534 30.2133 85.5222C30.3378 85.3911 30.4303 85.2313 30.4908 85.0429C30.5547 84.8546 30.5867 84.6427 30.5867 84.4073V81.2188H31.4645V86.6119H30.5867V85.8148H30.5211C30.4336 85.9998 30.3142 86.1596 30.1629 86.2941C30.0115 86.4286 29.8299 86.5312 29.618 86.6018C29.4095 86.6725 29.1724 86.7078 28.9067 86.7078ZM35.218 88.5189C34.7841 88.5189 34.404 88.4567 34.0778 88.3323C33.7549 88.2112 33.4959 88.0397 33.3009 87.8177C33.1058 87.5991 32.983 87.3451 32.9326 87.0559L32.9427 87.0408H33.8407L33.8508 87.0559C33.9079 87.2577 34.0543 87.4225 34.2897 87.5503C34.5251 87.6781 34.8345 87.742 35.218 87.742C35.6989 87.742 36.0739 87.6293 36.343 87.404C36.6121 87.1787 36.7466 86.8659 36.7466 86.4656V85.4667H36.681C36.57 85.6652 36.4288 85.835 36.2572 85.9763C36.0891 86.1175 35.8974 86.2252 35.6821 86.2991C35.4668 86.3731 35.2348 86.4101 34.9859 86.4101C34.5218 86.4101 34.1198 86.2991 33.7801 86.0772C33.4404 85.8518 33.1781 85.5407 32.9931 85.1438C32.8081 84.747 32.7156 84.2896 32.7156 83.7716V83.7666C32.7156 83.2486 32.8098 82.7912 32.9982 82.3943C33.1865 81.9975 33.4505 81.6863 33.7902 81.461C34.1333 81.2357 34.5386 81.123 35.0061 81.123C35.2583 81.123 35.4904 81.1633 35.7023 81.2441C35.9175 81.3248 36.1076 81.4391 36.2724 81.5871C36.4405 81.7351 36.5784 81.9117 36.6861 82.1169H36.7416V81.2188H37.6194V86.5211C37.6194 86.9247 37.5218 87.2762 37.3268 87.5755C37.1317 87.8749 36.8542 88.1069 36.4943 88.2717C36.1345 88.4365 35.709 88.5189 35.218 88.5189ZM35.1776 85.6332C35.5038 85.6332 35.7847 85.5542 36.0201 85.3961C36.2589 85.238 36.4422 85.0194 36.57 84.7402C36.6978 84.4611 36.7617 84.1382 36.7617 83.7716V83.7666C36.7617 83.4 36.6978 83.0771 36.57 82.7979C36.4422 82.5154 36.2589 82.2951 36.0201 82.137C35.7847 81.979 35.5038 81.8999 35.1776 81.8999C34.8446 81.8999 34.5621 81.979 34.33 82.137C34.098 82.2951 33.9197 82.5137 33.7953 82.7929C33.6742 83.072 33.6137 83.3966 33.6137 83.7666V83.7716C33.6137 84.1416 33.6742 84.4661 33.7953 84.7453C33.9197 85.0244 34.098 85.2431 34.33 85.4011C34.5621 85.5559 34.8446 85.6332 35.1776 85.6332ZM40.9541 86.7078C40.5505 86.7078 40.2091 86.6304 39.93 86.4757C39.6542 86.3176 39.4457 86.0889 39.3044 85.7896C39.1665 85.4903 39.0976 85.1321 39.0976 84.715V81.2188H39.9754V84.5132C39.9754 84.9875 40.0712 85.3423 40.263 85.5777C40.4547 85.8131 40.7641 85.9309 41.1912 85.9309C41.4233 85.9309 41.6285 85.8955 41.8067 85.8249C41.985 85.7543 42.1363 85.6534 42.2608 85.5222C42.3852 85.3911 42.4777 85.2313 42.5382 85.0429C42.6022 84.8546 42.6341 84.6427 42.6341 84.4073V81.2188H43.5119V86.6119H42.6341V85.8148H42.5685C42.4811 85.9998 42.3617 86.1596 42.2103 86.2941C42.059 86.4286 41.8774 86.5312 41.6655 86.6018C41.4569 86.6725 41.2198 86.7078 40.9541 86.7078ZM46.8971 86.7078C46.4935 86.7078 46.137 86.6456 45.8276 86.5211C45.5215 86.3967 45.276 86.2218 45.091 85.9964C44.9094 85.7711 44.8018 85.5071 44.7681 85.2044V85.1943H45.6611V85.2044C45.7317 85.4398 45.8713 85.6282 46.0798 85.7694C46.2917 85.9073 46.5726 85.9763 46.9223 85.9763C47.1679 85.9763 47.3814 85.9426 47.5631 85.8754C47.7447 85.8047 47.8876 85.7072 47.9919 85.5828C48.0961 85.4583 48.1483 85.3154 48.1483 85.1539V85.1438C48.1483 84.9589 48.0776 84.8041 47.9364 84.6797C47.7951 84.5519 47.5614 84.4476 47.2351 84.3669L46.3926 84.1651C46.0563 84.0844 45.7788 83.9801 45.5602 83.8523C45.3416 83.7212 45.1801 83.5614 45.0759 83.3731C44.9716 83.1813 44.9195 82.9577 44.9195 82.7021V82.697C44.9195 82.3943 45.0052 82.1253 45.1768 81.8898C45.3517 81.651 45.5905 81.4644 45.8932 81.3298C46.1959 81.1919 46.5372 81.123 46.9173 81.123C47.3007 81.123 47.6371 81.1852 47.9263 81.3097C48.2189 81.4307 48.4527 81.6023 48.6276 81.8242C48.8058 82.0462 48.9118 82.3052 48.9454 82.6012L48.9504 82.6163H48.0928V82.6062C48.039 82.3842 47.9112 82.2043 47.7094 82.0664C47.5076 81.9251 47.2435 81.8545 46.9173 81.8545C46.702 81.8545 46.512 81.8881 46.3472 81.9554C46.1824 82.0227 46.0529 82.1169 45.9588 82.2379C45.8646 82.3556 45.8175 82.4952 45.8175 82.6567V82.6668C45.8175 82.7845 45.8478 82.8921 45.9083 82.9896C45.9722 83.0838 46.0697 83.1662 46.2009 83.2368C46.3321 83.3075 46.5002 83.368 46.7054 83.4185L47.5429 83.6203C48.0608 83.7447 48.4409 83.923 48.683 84.155C48.9252 84.3837 49.0463 84.6915 49.0463 85.0783V85.0884C49.0463 85.4079 48.9521 85.6904 48.7638 85.9359C48.5754 86.1781 48.3198 86.3681 47.9969 86.506C47.6741 86.6405 47.3074 86.7078 46.8971 86.7078ZM52.1389 86.6674C51.5974 86.6674 51.2022 86.5548 50.9533 86.3294C50.7078 86.1007 50.585 85.7307 50.585 85.2195V81.9453H49.7475V81.2188H50.585V79.8113H51.4931V81.2188H52.6383V81.9453H51.4931V85.048C51.4931 85.3574 51.5536 85.5777 51.6747 85.7089C51.7958 85.8367 51.9926 85.9006 52.265 85.9006C52.3356 85.9006 52.3978 85.8989 52.4517 85.8955C52.5055 85.8922 52.5677 85.8871 52.6383 85.8804V86.622C52.561 86.6321 52.4802 86.6422 52.3962 86.6523C52.3121 86.6624 52.2263 86.6674 52.1389 86.6674ZM53.607 88.3626L54.0509 85.5878H55.0347L54.2527 88.3626H53.607ZM59.333 86.6119V85.9864L61.8152 83.3226C62.1313 82.9829 62.3768 82.7038 62.5517 82.4851C62.7266 82.2632 62.8477 82.063 62.915 81.8848C62.9856 81.7065 63.0209 81.5115 63.0209 81.2996V81.2895C63.0209 81.0372 62.9637 80.8119 62.8494 80.6134C62.7384 80.4116 62.5803 80.2536 62.3752 80.1392C62.17 80.0215 61.9278 79.9626 61.6487 79.9626C61.3561 79.9626 61.0971 80.0232 60.8718 80.1443C60.6498 80.2653 60.4766 80.4335 60.3521 80.6488C60.2277 80.8606 60.1655 81.1062 60.1655 81.3853L60.1604 81.4005L59.2876 81.3954L59.2826 81.3853C59.2859 80.9582 59.3902 80.5781 59.5954 80.2452C59.8039 79.9088 60.0898 79.6465 60.453 79.4581C60.8163 79.2664 61.2283 79.1706 61.689 79.1706C62.1162 79.1706 62.4996 79.2597 62.8393 79.438C63.1824 79.6162 63.4514 79.8584 63.6465 80.1644C63.8449 80.4705 63.9442 80.8186 63.9442 81.2088V81.2188C63.9442 81.4913 63.8954 81.7553 63.7978 82.0109C63.7003 82.2632 63.5305 82.5457 63.2883 82.8585C63.0461 83.1679 62.7031 83.5496 62.2591 84.0037L60.3521 85.9712L60.5892 85.5222V85.9712L60.3572 85.7946H64.0652V86.6119H59.333ZM67.9347 86.7734C67.3932 86.7734 66.9291 86.6187 66.5423 86.3092C66.1589 85.9998 65.8629 85.5609 65.6544 84.9925C65.4492 84.4241 65.3467 83.7514 65.3467 82.9745V82.9644C65.3467 82.1875 65.4492 81.5165 65.6544 80.9515C65.8629 80.3831 66.1589 79.9441 66.5423 79.6347C66.9291 79.3253 67.3932 79.1706 67.9347 79.1706C68.4796 79.1706 68.9454 79.3253 69.3322 79.6347C69.719 79.9441 70.0166 80.3831 70.2252 80.9515C70.4337 81.5165 70.538 82.1875 70.538 82.9644V82.9745C70.538 83.7514 70.4337 84.4241 70.2252 84.9925C70.0166 85.5609 69.719 85.9998 69.3322 86.3092C68.9454 86.6187 68.4796 86.7734 67.9347 86.7734ZM67.9347 85.9813C68.2912 85.9813 68.5939 85.8586 68.8428 85.613C69.0951 85.3675 69.2885 85.0211 69.423 84.5738C69.5575 84.1231 69.6248 83.59 69.6248 82.9745V82.9644C69.6248 82.3489 69.5575 81.8175 69.423 81.3702C69.2885 80.9229 69.0951 80.5781 68.8428 80.336C68.5939 80.0904 68.2912 79.9677 67.9347 79.9677C67.5849 79.9677 67.2839 80.0904 67.0317 80.336C66.7828 80.5781 66.5911 80.9229 66.4566 81.3702C66.3254 81.8175 66.2598 82.3489 66.2598 82.9644V82.9745C66.2598 83.59 66.3254 84.1231 66.4566 84.5738C66.5911 85.0211 66.7828 85.3675 67.0317 85.613C67.2839 85.8586 67.5849 85.9813 67.9347 85.9813ZM71.9152 86.6119V85.9864L74.3974 83.3226C74.7135 82.9829 74.959 82.7038 75.1339 82.4851C75.3088 82.2632 75.4299 82.063 75.4972 81.8848C75.5678 81.7065 75.6031 81.5115 75.6031 81.2996V81.2895C75.6031 81.0372 75.5459 80.8119 75.4316 80.6134C75.3206 80.4116 75.1625 80.2536 74.9574 80.1392C74.7522 80.0215 74.51 79.9626 74.2309 79.9626C73.9383 79.9626 73.6793 80.0232 73.454 80.1443C73.232 80.2653 73.0588 80.4335 72.9343 80.6488C72.8099 80.8606 72.7477 81.1062 72.7477 81.3853L72.7426 81.4005L71.8698 81.3954L71.8648 81.3853C71.8681 80.9582 71.9724 80.5781 72.1776 80.2452C72.3861 79.9088 72.672 79.6465 73.0352 79.4581C73.3985 79.2664 73.8105 79.1706 74.2712 79.1706C74.6984 79.1706 75.0818 79.2597 75.4215 79.438C75.7646 79.6162 76.0336 79.8584 76.2287 80.1644C76.4271 80.4705 76.5264 80.8186 76.5264 81.2088V81.2188C76.5264 81.4913 76.4776 81.7553 76.3801 82.0109C76.2825 82.2632 76.1127 82.5457 75.8705 82.8585C75.6284 83.1679 75.2853 83.5496 74.8413 84.0037L72.9343 85.9712L73.1714 85.5222V85.9712L72.9394 85.7946H76.6474V86.6119H71.9152ZM80.4766 86.7734C80.0225 86.7734 79.6173 86.6843 79.2607 86.506C78.9076 86.3277 78.6234 86.0839 78.4081 85.7745C78.1929 85.465 78.0668 85.1169 78.0298 84.7302L78.0247 84.6747H78.9026L78.9076 84.715C78.9379 84.9471 79.0236 85.159 79.1649 85.3507C79.3062 85.5424 79.4895 85.6937 79.7148 85.8047C79.9435 85.9157 80.2008 85.9712 80.4867 85.9712C80.8096 85.9712 81.0938 85.9006 81.3393 85.7593C81.5882 85.6147 81.7816 85.4163 81.9195 85.164C82.0607 84.9118 82.1313 84.6225 82.1313 84.2963V84.2862C82.1313 83.9667 82.0607 83.6825 81.9195 83.4336C81.7782 83.1813 81.5848 82.9846 81.3393 82.8433C81.0971 82.7021 80.818 82.6314 80.5018 82.6314C80.2597 82.6314 80.036 82.6684 79.8308 82.7424C79.6257 82.8164 79.4424 82.9274 79.2809 83.0754C79.217 83.1359 79.1565 83.2015 79.0993 83.2722C79.0455 83.3428 78.995 83.4218 78.948 83.5093H78.1559L78.5393 79.332H82.6157V80.1443H79.2607L79.0135 82.6012H79.0791C79.1901 82.4364 79.3246 82.2985 79.4827 82.1875C79.6442 82.0765 79.8241 81.9924 80.0225 81.9352C80.2243 81.8747 80.4362 81.8444 80.6582 81.8444C81.119 81.8444 81.5259 81.9504 81.8791 82.1623C82.2356 82.3708 82.5148 82.6583 82.7166 83.0249C82.9217 83.3882 83.0243 83.8036 83.0243 84.2711V84.2812C83.0243 84.7688 82.915 85.201 82.6964 85.5777C82.4778 85.951 82.1768 86.2437 81.7933 86.4555C81.4133 86.6674 80.9744 86.7734 80.4766 86.7734Z" fill="#545454"/>
</svg>
