<svg width="70" height="16" viewBox="0 0 70 16" fill="none" xmlns="http://www.w3.org/2000/svg">
<path d="M13.5134 8.88884C13.0783 12.2154 10.2329 14.7837 6.78802 14.7837C3.34318 14.7837 0.498548 12.2162 0.0626831 8.89042C0.885189 8.63399 1.82202 8.4236 2.84301 8.27116C3.56786 8.1624 4.33479 8.083 5.13268 8.03616C5.67255 8.0052 6.22671 7.98853 6.79199 7.98853C9.36351 7.98932 11.7127 8.32833 13.5134 8.88884Z" fill="#268B43"/>
<path d="M13.5658 7.9996C13.5658 8.2997 13.5467 8.59584 13.5086 8.88562C12.7147 8.55138 11.7683 8.27747 10.7124 8.07978C9.52392 7.85828 8.19568 7.73443 6.78647 7.73443C5.3574 7.73443 4.01805 7.86145 2.82002 8.08931C1.78236 8.2862 0.850293 8.55852 0.0579561 8.88879C0.0198478 8.59822 0 8.30129 0 7.9996C0 4.25307 3.03676 1.21631 6.78329 1.21631C10.5298 1.21631 13.5658 4.25307 13.5658 7.9996Z" fill="#268B43"/>
<path d="M9.82755 9.43349H9.01933C8.78671 9.43349 8.57474 9.55654 8.45723 9.75105C8.13728 10.275 7.61647 10.4862 6.93449 10.4862C6.28585 10.4862 5.69438 10.1933 5.3903 9.60735C5.36172 9.55257 5.33552 9.49621 5.31171 9.43904C5.18706 9.13735 5.08623 8.78644 5.08464 8.45775C5.08385 8.36248 5.07988 8.27039 5.10211 8.1775C5.11243 8.13542 5.11719 8.08381 5.1291 8.04253C5.1299 8.04094 5.13069 8.03777 5.13228 8.0338C4.33438 8.08064 3.56745 8.16003 2.8426 8.2688C3.03711 10.4973 4.67022 12.1289 6.98292 12.1289C8.38737 12.1289 9.75133 11.5032 10.3936 10.3505C10.6254 9.93445 10.3166 9.43349 9.82755 9.43349ZM6.87097 3.81091C4.30739 3.81091 2.82513 5.65361 2.82513 8.05523C2.82513 8.06555 2.82513 8.07587 2.82513 8.0862C4.02396 7.85834 5.36331 7.73131 6.79158 7.73131C8.2008 7.73131 9.52903 7.85516 10.7175 8.07667C10.735 8.01792 10.7398 7.95202 10.7398 7.86866C10.7398 5.46942 9.40121 3.81091 6.87097 3.81091ZM7.77605 7.14063H5.95399C5.45858 7.14063 5.15213 6.62934 5.39269 6.21333C5.66977 5.73697 6.17232 5.39162 6.85351 5.39162C7.61329 5.39162 8.11585 5.74094 8.36514 6.26731C8.55886 6.67619 8.24367 7.14063 7.77605 7.14063Z" fill="white"/>
<path d="M11.7233 11.1112C12.1925 11.1112 12.5728 10.7309 12.5728 10.2617C12.5728 9.79256 12.1925 9.41223 11.7233 9.41223C11.2542 9.41223 10.8738 9.79256 10.8738 10.2617C10.8738 10.7309 11.2542 11.1112 11.7233 11.1112Z" fill="white"/>
<path d="M20.2575 8.90837C20.8928 8.90837 21.2089 8.74873 21.6655 8.27298C21.7453 8.19316 21.9241 7.91538 22.3009 7.91538H24.0091C24.2677 7.91538 24.4465 8.11334 24.4465 8.37196C24.4465 8.4901 24.3667 8.6689 24.3284 8.74872C23.5142 10.4952 21.8667 11.2903 20.2607 11.2903C17.7798 11.2903 15.7363 9.42562 15.7363 6.64461V5.61331C15.7363 2.83549 17.7798 0.967651 20.2607 0.967651C22.7032 0.967651 24.686 2.95363 24.686 5.53348V6.38599C24.686 6.72443 24.4082 7.00221 24.0698 7.00221H18.6099V7.12036C18.6099 8.11335 19.3251 8.90837 20.2575 8.90837ZM21.905 4.97793C21.905 3.98494 21.1898 3.34955 20.2575 3.34955C19.3251 3.34955 18.6099 4.00409 18.6099 4.99708V5.13757H21.905V4.97793Z" fill="#268B43"/>
<path d="M27.7417 15.0611H26.0942C25.7557 15.0611 25.478 14.7833 25.478 14.4448V1.78184C25.478 1.44339 25.7557 1.16561 26.0942 1.16561H27.7417C28.0802 1.16561 28.358 1.44339 28.358 1.78184V2.09794C28.9933 1.34442 29.7085 0.967651 31.0368 0.967651C33.2782 0.967651 34.5298 2.53536 34.5298 5.61331V6.50732C34.5298 9.66189 33.1792 11.2903 31.0368 11.2903C29.8267 11.2903 29.0125 11.0125 28.358 10.16V14.448C28.358 14.7833 28.0802 15.0611 27.7417 15.0611ZM30.0055 8.90836C31.2347 8.90836 31.653 7.95688 31.653 7.06288V5.21739C31.653 4.32338 31.2347 3.35274 30.0055 3.35274C28.7762 3.35274 28.358 4.32657 28.358 5.21739V7.06288C28.358 7.95688 28.773 8.90836 30.0055 8.90836Z" fill="#268B43"/>
<path d="M44.0766 1.77785V10.4721C44.0766 10.8105 43.7988 11.0883 43.4604 11.0883H41.8129C41.4744 11.0883 41.1966 10.8105 41.1966 10.4721V10.156C40.6219 10.8712 39.9674 11.2863 38.6551 11.2863C36.254 11.2863 35.2195 9.42162 35.2195 6.64062V1.77785C35.2195 1.4394 35.4973 1.16162 35.8358 1.16162H37.4833C37.8217 1.16162 38.0995 1.4394 38.0995 1.77785V7.05888C38.0995 8.24983 38.7956 8.90437 39.6864 8.90437C40.5996 8.90437 41.1966 8.24983 41.1966 7.05888V1.77785C41.1966 1.4394 41.4744 1.16162 41.8129 1.16162H43.4604C43.7988 1.16162 44.0766 1.4394 44.0766 1.77785Z" fill="#268B43"/>
<path d="M59.8566 5.96764V10.4728C59.8566 10.8113 59.5788 11.089 59.2403 11.089H57.5928C57.2544 11.089 56.9766 10.8113 56.9766 10.4728V5.64835C56.9766 4.13812 56.8584 3.34628 55.5685 3.34628C54.1988 3.34628 54.0008 4.29776 54.0008 5.64835V10.4728C54.0008 10.8113 53.723 11.089 53.4069 11.089H51.7402C51.4018 11.089 51.124 10.8113 51.124 10.4728V5.64835C51.124 4.13812 51.0059 3.34628 49.7351 3.34628C48.2664 3.34628 48.1482 4.29776 48.1482 5.66751V10.4696C48.1482 10.8081 47.8705 11.0858 47.532 11.0858H45.8845C45.546 11.0858 45.2682 10.8081 45.2682 10.4696V1.77538C45.2682 1.43693 45.546 1.15915 45.8845 1.15915H47.532C47.8705 1.15915 48.1482 1.43693 48.1482 1.77538V2.09148C48.723 1.33795 49.4573 0.938843 50.6706 0.938843C51.6444 0.938843 52.6949 1.27729 53.4101 2.30859C54.1445 1.41458 55.1949 0.957999 56.4657 0.957999C59.5213 0.964385 59.8566 3.11001 59.8566 5.96764Z" fill="#268B43"/>
<path d="M63.2119 15.0611H61.5644C61.226 15.0611 60.9482 14.7833 60.9482 14.4448V1.78184C60.9482 1.44339 61.226 1.16561 61.5644 1.16561H63.2119C63.5504 1.16561 63.8282 1.44339 63.8282 1.78184V2.09794C64.4636 1.34442 65.1788 0.967651 66.507 0.967651C68.7484 0.967651 70 2.53536 70 5.61331V6.50732C70 9.66189 68.6494 11.2903 66.507 11.2903C65.2969 11.2903 64.4827 11.0125 63.8282 10.16V14.448C63.8282 14.7833 63.5472 15.0611 63.2119 15.0611ZM65.4725 8.90836C66.7018 8.90836 67.12 7.95688 67.12 7.06288V5.21739C67.12 4.32338 66.7018 3.35274 65.4725 3.35274C64.2432 3.35274 63.825 4.32657 63.825 5.21739V7.06288C63.8282 7.95688 64.2432 8.90836 65.4725 8.90836Z" fill="#268B43"/>
</svg>
