<svg width="51" height="50" viewBox="0 0 51 50" fill="none" xmlns="http://www.w3.org/2000/svg">
<g clip-path="url(#clip0_180_2652)">
<mask id="mask0_180_2652" style="mask-type:luminance" maskUnits="userSpaceOnUse" x="0" y="0" width="51" height="50">
<path d="M0.5 0H50.5V50H0.5V0Z" fill="white"/>
</mask>
<g mask="url(#mask0_180_2652)">
<path d="M17.167 50C21.767 50 25.5 46.267 25.5 41.667V33.333H17.167C14.9569 33.3335 12.8374 34.2118 11.2746 35.7746C9.71175 37.3374 8.83354 39.4569 8.83301 41.667C8.83301 46.267 12.567 50 17.167 50Z" fill="#0ACF83"/>
<path d="M8.83301 25C8.83301 20.4 12.567 16.667 17.167 16.667H25.5V33.333H17.167C14.957 33.3325 12.8377 32.4544 11.2749 30.8918C9.71213 29.3292 8.8338 27.21 8.83301 25Z" fill="#A259FF"/>
<path d="M8.83301 8.333C8.83301 3.733 12.567 0 17.167 0H25.5V16.667H17.167C14.9569 16.6665 12.8374 15.7883 11.2746 14.2254C9.71175 12.6626 8.83354 10.5432 8.83301 8.333Z" fill="#F24E1E"/>
<path d="M25.5 0H33.833C38.433 0 42.167 3.733 42.167 8.333C42.167 12.933 38.433 16.667 33.833 16.667H25.5V0Z" fill="#FF7262"/>
<path d="M42.167 25C42.167 29.6 38.433 33.333 33.833 33.333C31.6232 33.3322 29.5041 32.454 27.9416 30.8914C26.379 29.3289 25.5008 27.2098 25.5 25C25.5 20.4 29.233 16.667 33.833 16.667C38.433 16.667 42.167 20.4 42.167 25Z" fill="#1ABCFE"/>
</g>
</g>
<defs>
<clipPath id="clip0_180_2652">
<rect width="50" height="50" fill="white" transform="translate(0.5)"/>
</clipPath>
</defs>
</svg>
