<svg width="50" height="26" viewBox="0 0 50 26" fill="none" xmlns="http://www.w3.org/2000/svg">
<path d="M1.14399 25.8571H0V23.0001C0 22.4844 0 21.3973 0 21.3973C0 21.3973 1.09346 21.3973 1.58505 21.3973H3.96952V22.5123H1.80558C1.72288 22.5123 1.3637 22.5123 1.26964 22.5123L1.14399 22.5541C1.14399 22.5541 1.14399 22.7432 1.14399 22.8451C1.14399 22.913 1.14399 22.9908 1.14399 23.0698H3.96952V24.1847H1.14399V25.8571Z" fill="#018CB7"/>
<path d="M6.22063 24.7422H7.32328C7.40138 24.7422 7.47948 24.7282 7.55759 24.7004C7.64029 24.6725 7.7115 24.633 7.77122 24.5819C7.83555 24.5308 7.88608 24.4727 7.92284 24.4077C7.96419 24.338 7.98486 24.2637 7.98486 24.1847V21.3973H9.13575V24.2544C9.13575 24.77 8.99332 25.1672 8.70847 25.446C8.42822 25.7201 8.03999 25.8571 7.5438 25.8571H6.0001C5.50391 25.8571 5.11339 25.7201 4.82854 25.446C4.54829 25.1672 4.40816 24.77 4.40816 24.2544V21.3973H5.55904V24.1847C5.55904 24.2637 5.57742 24.338 5.61418 24.4077C5.65552 24.4727 5.70606 24.5308 5.76579 24.5819C5.83011 24.633 5.90132 24.6725 5.97943 24.7004C6.06212 24.7282 6.14253 24.7422 6.22063 24.7422Z" fill="#018CB7"/>
<path d="M13.8632 25.8571H11.1755C10.6793 25.8571 10.2888 25.7201 10.0039 25.446C9.72366 25.1672 9.58354 24.77 9.58354 24.2544V23.0001C9.58354 22.4844 9.72366 22.0895 10.0039 21.8154C10.2888 21.5367 10.6793 21.3973 11.1755 21.3973H13.8632V22.5123H11.3891C11.311 22.5123 11.2329 22.5262 11.1548 22.5541C11.0767 22.582 11.0055 22.6215 10.9412 22.6726C10.8814 22.7237 10.8309 22.784 10.7896 22.8537C10.7528 22.9188 10.7344 22.9908 10.7344 23.0698H13.8632V24.1847H10.7344C10.7344 24.2637 10.7528 24.338 10.7896 24.4077C10.8309 24.4727 10.8814 24.5308 10.9412 24.5819C11.0055 24.633 11.0767 24.6725 11.1548 24.7004C11.2329 24.7282 11.311 24.7422 11.3891 24.7422H13.8632V25.8571Z" fill="#018CB7"/>
<path d="M14.308 21.3973H15.4451V24.7422H17.9054V25.8571H14.308V21.3973Z" fill="#018CB7"/>
<path d="M21.9641 22.5123V25.8571H20.8063V22.5123H19.5038V25.8571H18.346V21.3973H22.8255C23.3217 21.3973 23.7122 21.5367 23.9971 21.8154C24.2819 22.0895 24.4243 22.4844 24.4243 23.0001V25.8571H23.2666V23.0698C23.2666 22.9908 23.2459 22.9188 23.2045 22.8537C23.1678 22.784 23.1173 22.7237 23.0529 22.6726C22.9886 22.6215 22.9174 22.582 22.8393 22.5541C22.7612 22.5262 22.6808 22.5123 22.5981 22.5123H21.9641Z" fill="#BD2320"/>
<path d="M29.1538 25.8571H26.4661C25.9699 25.8571 25.5794 25.7201 25.2945 25.446C25.0142 25.1672 24.8741 24.77 24.8741 24.2544V23.0001C24.8741 22.4844 25.0142 22.0895 25.2945 21.8154C25.5794 21.5367 25.9699 21.3973 26.4661 21.3973H29.1538V22.5123H26.6797C26.6016 22.5123 26.5235 22.5262 26.4454 22.5541C26.3673 22.582 26.2961 22.6215 26.2318 22.6726C26.172 22.7237 26.1215 22.784 26.0801 22.8537C26.0434 22.9188 26.025 22.9908 26.025 23.0698H29.1538V24.1847H26.025C26.025 24.2637 26.0434 24.338 26.0801 24.4077C26.1215 24.4727 26.172 24.5308 26.2318 24.5819C26.2961 24.633 26.3673 24.6725 26.4454 24.7004C26.5235 24.7282 26.6016 24.7422 26.6797 24.7422H29.1538V25.8571Z" fill="#BD2320"/>
<path d="M29.5986 22.5123V21.3973H33.8989V22.5123H32.3207V25.8571H31.1768V22.5123H29.5986Z" fill="#BD2320"/>
<path d="M34.35 25.8571V21.3973H37.4029C37.6418 21.3973 37.8486 21.4322 38.0232 21.5019C38.2023 21.5669 38.3494 21.6621 38.4642 21.7876C38.5791 21.913 38.6641 22.064 38.7192 22.2405C38.7789 22.417 38.8088 22.6122 38.8088 22.8259C38.8088 22.9374 38.7996 23.0372 38.7812 23.1255C38.7675 23.2091 38.7468 23.2858 38.7192 23.3555C38.6916 23.4205 38.6572 23.4809 38.6158 23.5366C38.5745 23.5924 38.5262 23.6505 38.4711 23.7108L38.4849 23.7178C38.5354 23.7689 38.5814 23.8177 38.6227 23.8641C38.6641 23.906 38.6985 23.9547 38.7261 24.0105C38.7537 24.0662 38.7743 24.1336 38.7881 24.2126C38.8019 24.2915 38.8088 24.3914 38.8088 24.5122V25.8571H37.651V24.5331C37.651 24.4867 37.6372 24.4356 37.6097 24.3798C37.5821 24.3194 37.5201 24.2776 37.4236 24.2544H35.5009V25.8571H34.35ZM37.3754 22.5123H35.5009V23.1394H37.4443C37.5362 23.1255 37.5959 23.0837 37.6235 23.014C37.651 22.9397 37.6648 22.8816 37.6648 22.8398C37.6648 22.8166 37.6625 22.7864 37.6579 22.7492C37.6533 22.712 37.6395 22.6772 37.6166 22.6447C37.5982 22.6075 37.5683 22.5773 37.527 22.5541C37.4902 22.5262 37.4397 22.5123 37.3754 22.5123Z" fill="#BD2320"/>
<path d="M39.2562 25.8571V21.3973H40.407V25.8571H39.2562Z" fill="#BD2320"/>
<path d="M45.1308 25.8571H42.4431C41.9469 25.8571 41.5564 25.7201 41.2716 25.446C40.9913 25.1672 40.8512 24.77 40.8512 24.2544V23.0001C40.8512 22.4844 40.9913 22.0895 41.2716 21.8154C41.5564 21.5367 41.9469 21.3973 42.4431 21.3973H45.1308V22.5123H42.6567C42.5786 22.5123 42.5005 22.5262 42.4224 22.5541C42.3443 22.582 42.2731 22.6215 42.2088 22.6726C42.1491 22.7237 42.0985 22.784 42.0572 22.8537C42.0204 22.9188 42.0021 22.9908 42.0021 23.0698V24.1847C42.0021 24.2637 42.0204 24.338 42.0572 24.4077C42.0985 24.4727 42.1491 24.5308 42.2088 24.5819C42.2731 24.633 42.3443 24.6725 42.4224 24.7004C42.5005 24.7282 42.5786 24.7422 42.6567 24.7422H45.1308V25.8571Z" fill="#BD2320"/>
<path d="M46.9884 23.0698H48.5803C48.8606 23.0698 49.0926 23.1139 49.2764 23.2022C49.4602 23.2904 49.6049 23.4019 49.7106 23.5366C49.8162 23.6714 49.8897 23.8177 49.9311 23.9756C49.977 24.1336 50 24.2846 50 24.4286C50 24.6423 49.9678 24.8374 49.9035 25.0139C49.8438 25.1905 49.7542 25.3414 49.6348 25.4669C49.5153 25.5923 49.366 25.6899 49.1868 25.7595C49.0122 25.8246 48.8101 25.8571 48.5803 25.8571H45.5756V24.7422H48.5597C48.624 24.7422 48.6745 24.7329 48.7113 24.7143C48.748 24.6911 48.7756 24.6655 48.794 24.6376C48.817 24.6051 48.8307 24.5726 48.8353 24.5401C48.8399 24.5076 48.8422 24.4797 48.8422 24.4565C48.8422 24.41 48.8239 24.3543 48.7871 24.2892C48.7549 24.2195 48.6791 24.1847 48.5597 24.1847H46.9677C46.6829 24.1847 46.4486 24.1406 46.2648 24.0523C46.081 23.964 45.9363 23.8525 45.8306 23.7178C45.725 23.5831 45.6492 23.4368 45.6032 23.2788C45.5619 23.1162 45.5412 22.9629 45.5412 22.8189C45.5412 22.6052 45.571 22.4124 45.6308 22.2405C45.6951 22.064 45.787 21.913 45.9064 21.7876C46.0259 21.6621 46.1729 21.5669 46.3475 21.5019C46.5267 21.4322 46.7334 21.3973 46.9677 21.3973H49.9655V22.5123H46.9884C46.9241 22.5123 46.8712 22.5239 46.8299 22.5471C46.7931 22.5657 46.7633 22.5889 46.7403 22.6168C46.7219 22.6447 46.7104 22.6749 46.7058 22.7074C46.7013 22.7399 46.699 22.7678 46.699 22.791C46.699 22.8142 46.7013 22.8421 46.7058 22.8746C46.715 22.9072 46.7288 22.9374 46.7472 22.9652C46.7702 22.9931 46.8 23.0187 46.8368 23.0419C46.8735 23.0605 46.9241 23.0698 46.9884 23.0698Z" fill="#BD2320"/>
<path d="M6.10417 7.08601C1.75327 12.051 0.978598 18.9323 0.978598 18.9323H5.37195C5.37195 18.9323 6.61715 13.3162 8.51621 10.1782C13.1814 2.46947 22.127 0.291834 22.127 0.291834C22.127 0.291834 19.7276 -0.0434428 18.2505 0.291834C14.0294 1.24994 9.69925 2.98353 6.10417 7.08601Z" fill="#BD2320"/>
<path d="M27.4679 1.03207C45.1275 1.03215 48.0994 18.5401 48.0994 18.5401H28.9208C29.3033 17.9767 29.8125 17.0877 29.8365 16.3191C29.8785 14.9697 29.4872 14.428 28.6735 13.3576C27.7488 12.1411 25.6154 11.0057 25.6154 11.0057C25.6154 11.0057 26.425 11.8371 26.4768 12.7043C26.5229 13.4752 26.0057 14.0106 25.4825 14.5524C24.9857 15.0667 24.4835 15.5867 24.4524 16.3191C24.4197 17.0906 25.0413 17.9778 25.5178 18.5401H6.8364C6.8364 18.5401 7.52612 14.4769 10.2154 10.2654H21.3948V8.52325H11.4467C14.5096 4.60529 19.49 1.03204 27.4679 1.03207Z" fill="#018CB7"/>
<path d="M26.4793 17.0847C27.1684 17.5101 28.5468 17.0847 28.5468 17.0847C28.5468 17.0847 27.5115 18.13 26.1348 17.4331C25.4259 17.0743 25.5317 15.4733 25.5317 15.4733C25.5317 15.4733 25.8613 16.7032 26.4793 17.0847Z" fill="#018CB7"/>
</svg>
