<svg width="25" height="24" viewBox="0 0 25 24" fill="none" xmlns="http://www.w3.org/2000/svg">
<g clip-path="url(#clip0_469_3332)">
<g clip-path="url(#clip1_469_3332)">
<path d="M17.5 9.00001C17.5 12.87 14.14 16 10 16L9.07001 17.12L8.52 17.78C8.05001 18.34 7.15 18.22 6.84 17.55L5.5 14.6C3.68001 13.32 2.5 11.29 2.5 9.00001C2.5 5.13001 5.86 2 10 2C13.0201 2 15.6301 3.67002 16.8001 6.07002C17.2501 6.96001 17.5 7.95001 17.5 9.00001Z" stroke="#8A8A8A" stroke-width="1.8" stroke-linecap="round" stroke-linejoin="round"/>
<path d="M22.5004 12.8603C22.5004 15.1503 21.3203 17.1804 19.5004 18.4603L18.1603 21.4103C17.8504 22.0802 16.9504 22.2103 16.4803 21.6403L15.0004 19.8603C12.5803 19.8603 10.4203 18.7903 9.07031 17.1203L10.0003 16.0003C14.1403 16.0003 17.5003 12.8703 17.5003 9.0003C17.5003 7.9503 17.2504 6.9603 16.8004 6.07031C20.0704 6.82031 22.5004 9.58029 22.5004 12.8603Z" stroke="#8A8A8A" stroke-width="1.8" stroke-linecap="round" stroke-linejoin="round"/>
<path d="M7.5 9H12.5" stroke="#8A8A8A" stroke-width="1.8" stroke-linecap="round" stroke-linejoin="round"/>
</g>
</g>
<defs>
<clipPath id="clip0_469_3332">
<rect width="24" height="24" fill="white" transform="translate(0.5)"/>
</clipPath>
<clipPath id="clip1_469_3332">
<rect width="24" height="24" fill="white" transform="translate(0.5)"/>
</clipPath>
</defs>
</svg>
