<svg width="24" height="24" viewBox="0 0 24 24" fill="none" xmlns="http://www.w3.org/2000/svg">
<path d="M10.1055 3.22754C11.0872 2.43908 12.6327 2.39367 13.6992 3.08984L13.9062 3.23926L20.4551 8.47852C20.8148 8.77337 21.1314 9.23872 21.3369 9.77637C21.542 10.3132 21.6168 10.8715 21.5479 11.3311L20.2891 18.8672C20.0483 20.2534 18.6943 21.4004 17.2998 21.4004H6.7002C5.37308 21.4004 4.12842 20.418 3.7793 19.1387L3.72168 18.8789L2.46191 11.3408V11.3398L2.43945 11.1611C2.4031 10.736 2.47875 10.2479 2.6582 9.77734C2.86325 9.23976 3.18439 8.77435 3.55371 8.47949L3.55566 8.47852L10.1055 3.22852V3.22754ZM12 13.6504C11.2586 13.6504 10.6504 14.2586 10.6504 15V18C10.6504 18.7414 11.2586 19.3496 12 19.3496C12.7414 19.3496 13.3496 18.7414 13.3496 18V15C13.3496 14.2586 12.7413 13.6504 12 13.6504Z" stroke="#8A8A8A" stroke-width="1.2"/>
</svg>
