<svg width="25" height="24" viewBox="0 0 25 24" fill="none" xmlns="http://www.w3.org/2000/svg">
<path d="M11.2493 22.4918H13.7693C14.7293 22.4918 15.3493 21.8118 15.1693 20.9818L14.7594 19.1719H10.2594L9.84935 20.9818C9.66935 21.7618 10.3493 22.4918 11.2493 22.4918Z" stroke="#8A8A8A" stroke-width="1.5" stroke-linecap="round" stroke-linejoin="round"/>
<path d="M14.7605 19.1663L16.4905 17.6262C17.4605 16.7662 17.5005 16.1662 16.7305 15.1962L13.6805 11.3263C13.0405 10.5163 11.9905 10.5163 11.3505 11.3263L8.30054 15.1962C7.53054 16.1662 7.53054 16.7962 8.54054 17.6262L10.2705 19.1663" stroke="#8A8A8A" stroke-width="1.5" stroke-linecap="round" stroke-linejoin="round"/>
<path d="M12.5117 11.1172V13.6472" stroke="#8A8A8A" stroke-width="1.5" stroke-linecap="round" stroke-linejoin="round"/>
<path d="M11.6501 5.19063L10.8701 4.41061C10.4001 3.94061 10.4001 3.18065 10.8701 2.71065L11.6501 1.93062C12.1201 1.46062 12.8801 1.46062 13.3501 1.93062L14.1301 2.71065C14.6001 3.18065 14.6001 3.94061 14.1301 4.41061L13.3501 5.19063C12.8801 5.66063 12.1201 5.66063 11.6501 5.19063Z" stroke="#8A8A8A" stroke-width="1.5" stroke-linecap="round" stroke-linejoin="round"/>
<path d="M19.95 9.8125H21.05C21.71 9.8125 22.25 10.3525 22.25 11.0125V12.1125C22.25 12.7725 21.71 13.3126 21.05 13.3126H19.95C19.29 13.3126 18.75 12.7725 18.75 12.1125V11.0125C18.75 10.3525 19.29 9.8125 19.95 9.8125Z" stroke="#8A8A8A" stroke-width="1.5" stroke-linecap="round" stroke-linejoin="round"/>
<path d="M5.05 9.8125H3.95C3.29 9.8125 2.75 10.3525 2.75 11.0125V12.1125C2.75 12.7725 3.29 13.3126 3.95 13.3126H5.05C5.71 13.3126 6.25 12.7725 6.25 12.1125V11.0125C6.25 10.3525 5.71 9.8125 5.05 9.8125Z" stroke="#8A8A8A" stroke-width="1.5" stroke-linecap="round" stroke-linejoin="round"/>
<path d="M19.0402 10.0969L13.7402 4.79688" stroke="#8A8A8A" stroke-width="1.5" stroke-linecap="round" stroke-linejoin="round"/>
<path d="M5.96094 10.0969L11.2609 4.79688" stroke="#8A8A8A" stroke-width="1.5" stroke-linecap="round" stroke-linejoin="round"/>
</svg>
