<svg width="40" height="40" viewBox="0 0 40 40" fill="none" xmlns="http://www.w3.org/2000/svg">
<path d="M30 0C35.5228 0 40 4.47715 40 10V30C39.9998 35.5227 35.5227 40 30 40H10C4.4773 40 0.00022738 35.5226 0 30V10C0 4.47716 4.47716 1.03085e-05 10 0H30ZM25.1533 7.57617C24.0999 7.47459 15.9009 7.47249 14.8467 7.57617C10.4608 7.66861 7.66908 10.4595 7.57715 14.8467C7.47557 15.8988 7.47347 24.1002 7.57715 25.1533C7.65899 29.5256 10.4744 32.3422 14.8467 32.4238C16.1798 32.4846 16.6055 32.499 20 32.499C23.3942 32.499 23.8204 32.4846 25.1533 32.4238C26.4832 32.363 27.3917 32.1516 28.1865 31.8428C30.9726 30.7299 32.3339 28.2541 32.4229 25.1533C32.5244 24.0997 32.5263 15.9006 32.4229 14.8467C32.3301 10.4604 29.5401 7.66794 25.1533 7.57617ZM14.9492 9.82617C15.987 9.72697 24.0101 9.72568 25.0498 9.82617C28.4408 9.97801 30.0096 11.5743 30.1738 14.9492C30.2409 15.7595 30.2896 20.1832 30.1738 22.4219C30.2988 26.6264 30.1062 29.9273 25.0498 30.1738C24.0117 30.2727 15.9865 30.2743 14.9492 30.1738C13.7312 30.1183 13.0694 29.9152 12.6289 29.7441C8.82661 27.9805 10.0053 24.4132 9.82617 19.5176C9.83012 18.3805 9.82354 16.0863 9.82617 14.9492C9.97809 11.5593 11.5748 9.99019 14.9492 9.82617ZM20 13.6836C16.5121 13.6838 13.6846 16.5194 13.6846 20.0166C14.0175 28.4161 25.9846 28.4138 26.3164 20.0166C26.3164 16.5193 23.4881 13.6836 20 13.6836ZM15.9004 20.0166C16.1164 14.564 23.8856 14.5656 24.1006 20.0166C24.1004 22.2864 22.2641 24.127 20 24.127C17.7361 24.1267 15.9006 22.2866 15.9004 20.0166ZM26.668 11.7578C24.5628 11.8225 24.5633 14.8506 26.668 14.915C28.7735 14.8506 28.773 11.822 26.668 11.7578Z" fill="black"/>
</svg>
