<svg width="32" height="32" viewBox="0 0 32 32" fill="none" xmlns="http://www.w3.org/2000/svg">
<path d="M24 -0.000488281C28.4183 -0.000488281 32 3.58221 32 8.00049V23.9995C32 28.4178 28.4183 32.0005 24 32.0005H8C3.58188 32.0005 0.000263879 28.4185 0 24.0005V8.00049C0 3.58221 3.58172 -0.000488281 8 -0.000488281H24ZM20.1221 6.06201C19.2786 5.98078 12.7227 5.97911 11.8779 6.06201C8.36911 6.13591 6.135 8.36855 6.06152 11.8784C5.9803 12.722 5.97859 19.2814 6.06152 20.1235C6.12715 23.6212 8.38018 25.8747 11.8779 25.9399C12.9441 25.9886 13.2848 25.9995 16 25.9995C18.7151 25.9995 19.056 25.9886 20.1221 25.9399C21.1863 25.8913 21.9138 25.7223 22.5498 25.4751C24.7784 24.5848 25.8672 22.6039 25.9385 20.1235C26.0197 19.281 26.0212 12.7234 25.9385 11.8784C25.8644 8.36918 23.6317 6.13527 20.1221 6.06201ZM11.96 7.86084C12.7916 7.78151 19.2087 7.78045 20.04 7.86084C22.7527 7.98231 24.0072 9.25975 24.1387 11.9595C24.1924 12.6077 24.2313 16.1471 24.1387 17.938C24.2387 21.3016 24.0852 23.9429 20.04 24.1401C19.21 24.2193 12.7912 24.2205 11.96 24.1401C10.9852 24.0957 10.455 23.9323 10.1025 23.7954C7.06132 22.3844 8.00461 19.5309 7.86133 15.6147C7.86449 14.7052 7.85923 12.8703 7.86133 11.9604C7.9828 9.24826 9.26019 7.992 11.96 7.86084ZM15.999 10.9468C13.2087 10.9469 10.9463 13.2154 10.9463 16.0132C11.2124 22.7331 20.7865 22.7312 21.0518 16.0132C21.0517 13.2153 18.7895 10.9468 15.999 10.9468ZM12.7197 16.0132C12.8926 11.6512 19.1072 11.6525 19.2793 16.0132C19.2793 17.8292 17.8104 19.3013 15.999 19.3013C14.1878 19.3011 12.7197 17.8293 12.7197 16.0132ZM21.3359 9.40674C19.652 9.45866 19.6524 11.8814 21.3359 11.9331C23.0203 11.8815 23.0199 9.45811 21.3359 9.40674Z" fill="white"/>
</svg>
