<svg width="17" height="16" viewBox="0 0 17 16" fill="none" xmlns="http://www.w3.org/2000/svg">
<g clip-path="url(#clip0_206_6300)">
<path d="M15.2658 0H1.63145C0.97832 0 0.450195 0.515625 0.450195 1.15313V14.8438C0.450195 15.4813 0.97832 16 1.63145 16H15.2658C15.9189 16 16.4502 15.4813 16.4502 14.8469V1.15313C16.4502 0.515625 15.9189 0 15.2658 0ZM5.19707 13.6344H2.82207V5.99687H5.19707V13.6344ZM4.00957 4.95625C3.24707 4.95625 2.63145 4.34062 2.63145 3.58125C2.63145 2.82188 3.24707 2.20625 4.00957 2.20625C4.76895 2.20625 5.38457 2.82188 5.38457 3.58125C5.38457 4.3375 4.76895 4.95625 4.00957 4.95625ZM14.0846 13.6344H11.7127V9.92188C11.7127 9.0375 11.6971 7.89687 10.4783 7.89687C9.24395 7.89687 9.05645 8.8625 9.05645 9.85938V13.6344H6.6877V5.99687H8.9627V7.04063H8.99395C9.30957 6.44063 10.0846 5.80625 11.2377 5.80625C13.6408 5.80625 14.0846 7.3875 14.0846 9.44375V13.6344Z" fill="white"/>
</g>
<defs>
<clipPath id="clip0_206_6300">
<rect width="16" height="16" fill="white" transform="translate(0.450195)"/>
</clipPath>
</defs>
</svg>
