<svg width="50" height="31" viewBox="0 0 50 31" fill="none" xmlns="http://www.w3.org/2000/svg">
<path opacity="0.1" d="M11.3568 0C5.34838 0 0.450195 4.96459 0.450195 11.0597C0.450195 15.2051 2.68704 18.9244 6.23005 20.8251C6.05045 22.7585 5.25042 26.871 1.96864 27.7722C1.18492 27.9852 0.678777 28.7389 0.77674 29.5418C0.874704 30.3446 1.5278 30.9672 2.34416 30.9836H2.58907C4.18914 30.9836 12.9732 30.6232 18.6551 22.9715C22.3451 18.0069 23.439 12.6163 21.7573 7.86469C20.3531 3.16226 16.1734 0 11.3568 0ZM48.6809 7.88108C47.2768 3.17865 43.097 0.0163852 38.2805 0.0163852C32.272 0.0163852 27.3739 4.98097 27.3739 11.0761C27.3739 15.2215 29.6107 18.9408 33.1537 20.8414C32.9741 22.7748 32.1741 26.8874 28.8923 27.7886C28.1086 28.0016 27.6024 28.7553 27.7004 29.5581C27.7984 30.361 28.4515 30.9836 29.2678 31H29.5127C31.1128 31 39.8969 30.6395 45.5788 22.9878C49.2687 18.0233 50.3627 12.6327 48.6809 7.88108Z" fill="white"/>
</svg>
