<svg width="122" height="122" viewBox="0 0 122 122" fill="none" xmlns="http://www.w3.org/2000/svg">
<path d="M68.7532 5.03324L67.7758 4.95261C67.7412 4.6667 67.6604 4.41137 67.5334 4.18662C67.4091 3.96208 67.2504 3.76911 67.0574 3.60769C66.8672 3.44386 66.6517 3.31497 66.4107 3.22103C66.1698 3.12708 65.9154 3.06905 65.6474 3.04695C65.1586 3.00663 64.7057 3.0936 64.2886 3.30786C63.8741 3.52234 63.5301 3.86035 63.2566 4.3219C62.9857 4.78366 62.8214 5.364 62.7638 6.06292C62.7061 6.76184 62.7731 7.36126 62.9646 7.86117C63.1588 8.3613 63.4428 8.75111 63.8165 9.03061C64.1929 9.31032 64.6255 9.47034 65.1142 9.51065C65.3822 9.53276 65.6427 9.51722 65.8958 9.46402C66.1488 9.41082 66.3825 9.32031 66.5967 9.19249C66.8138 9.06225 67.0021 8.89657 67.1615 8.69545C67.3238 8.49191 67.4453 8.25327 67.5261 7.97952L68.5035 8.06015C68.3959 8.4666 68.2315 8.82471 68.0102 9.13449C67.7889 9.44426 67.5243 9.70152 67.2164 9.90628C66.9087 10.1084 66.57 10.2537 66.2003 10.3423C65.8332 10.431 65.446 10.4586 65.0387 10.425C64.3503 10.3682 63.752 10.1496 63.2437 9.76904C62.7355 9.3885 62.3532 8.87551 62.0969 8.23005C61.8406 7.5846 61.7476 6.83621 61.8178 5.98489C61.8881 5.13358 62.1025 4.41055 62.461 3.81581C62.8196 3.22108 63.2808 2.77766 63.8445 2.48555C64.4083 2.19344 65.0344 2.07578 65.7228 2.13257C66.1301 2.16616 66.5075 2.25682 66.8551 2.40454C67.2053 2.55247 67.5155 2.75265 67.7857 3.00509C68.056 3.2549 68.275 3.55073 68.4426 3.89258C68.6104 4.2318 68.7139 4.61202 68.7532 5.03324Z" fill="#8A8A8A"/>
<path d="M72.2904 11.6008C71.7567 11.4746 71.3185 11.2369 70.9757 10.8877C70.6355 10.5391 70.4065 10.1098 70.2886 9.59969C70.1733 9.09023 70.1879 8.53017 70.3322 7.91952C70.4777 7.30374 70.7164 6.79259 71.0482 6.38608C71.3825 5.98018 71.7798 5.69752 72.2401 5.53812C72.703 5.37932 73.2012 5.36299 73.7349 5.48912C74.2686 5.61526 74.7055 5.85264 75.0458 6.20125C75.3886 6.55047 75.6173 6.98109 75.7319 7.49312C75.8492 8.00576 75.835 8.56997 75.6895 9.18575C75.5452 9.7964 75.3061 10.3034 74.9724 10.7067C74.6412 11.1107 74.2442 11.392 73.7814 11.5508C73.3211 11.7103 72.8241 11.7269 72.2904 11.6008ZM72.4832 10.7848C72.8886 10.8807 73.2467 10.8556 73.5576 10.7096C73.8684 10.5636 74.1267 10.3362 74.3325 10.0272C74.5382 9.71824 74.6878 9.3662 74.7812 8.97107C74.8746 8.57595 74.8988 8.1929 74.8537 7.82194C74.8086 7.45098 74.6801 7.12938 74.4681 6.85713C74.2561 6.58488 73.9475 6.40085 73.5421 6.30503C73.1367 6.20922 72.7783 6.23558 72.4668 6.38411C72.1554 6.53265 71.8965 6.76268 71.6901 7.07421C71.4837 7.38574 71.3339 7.73907 71.2405 8.1342C71.1471 8.52932 71.1232 8.91108 71.1689 9.27948C71.2146 9.64787 71.3437 9.96691 71.5563 10.2366C71.7689 10.5063 72.0779 10.689 72.4832 10.7848Z" fill="#8A8A8A"/>
<path d="M78.7357 9.53719L77.4227 12.9472L76.5517 12.6119L78.7345 6.94322L79.5759 7.26721L79.2348 8.15294L79.3087 8.18136C79.5524 7.94466 79.8432 7.79107 80.1811 7.72059C80.5199 7.64766 80.9034 7.69361 81.3315 7.85845C81.7153 8.00624 82.0208 8.21428 82.2481 8.48259C82.4762 8.74843 82.6092 9.07083 82.6469 9.4498C82.6856 9.8263 82.612 10.2557 82.4264 10.7379L81.0394 14.3399L80.1685 14.0045L81.5327 10.4616C81.7041 10.0163 81.7221 9.62482 81.5865 9.28728C81.4518 8.94727 81.1828 8.69958 80.7793 8.54421C80.5013 8.43716 80.2295 8.40176 79.9642 8.438C79.7012 8.47519 79.4625 8.58526 79.248 8.76822C79.0334 8.95118 78.8627 9.2075 78.7357 9.53719Z" fill="#8A8A8A"/>
<path d="M87.8643 10.9744L87.5045 11.6787L84.7012 10.2466L85.0611 9.54222L87.8643 10.9744ZM86.5402 8.66365L87.3713 9.08826L84.7373 14.244C84.6174 14.4788 84.5614 14.6723 84.5696 14.8245C84.5812 14.9755 84.6309 15.0985 84.7185 15.1936C84.8096 15.2876 84.9162 15.3657 85.0383 15.4281C85.1299 15.4749 85.2074 15.5086 85.2709 15.5292C85.3356 15.5474 85.3874 15.562 85.4262 15.5729L85.2138 16.4059C85.1466 16.3982 85.0572 16.3792 84.9454 16.3488C84.8325 16.3207 84.6985 16.267 84.5436 16.1879C84.3088 16.0679 84.1045 15.8999 83.9307 15.6838C83.7592 15.4689 83.6523 15.2203 83.61 14.9382C83.57 14.6572 83.6303 14.3594 83.791 14.0448L86.5402 8.66365Z" fill="#8A8A8A"/>
<path d="M87.559 18.032C87.2356 17.8232 86.9814 17.5729 86.7965 17.2809C86.6129 16.9867 86.5187 16.6733 86.5137 16.3406C86.5102 16.0058 86.6157 15.6722 86.8302 15.3399C87.0189 15.0475 87.2295 14.8477 87.4619 14.7404C87.6958 14.6309 87.9426 14.5863 88.2025 14.6065C88.4625 14.6268 88.7251 14.6865 88.9906 14.7857C89.2597 14.8841 89.5228 14.9943 89.7798 15.1162C90.1157 15.2765 90.3864 15.4089 90.592 15.5133C90.8012 15.617 90.9666 15.672 91.0881 15.6782C91.2118 15.6859 91.3144 15.6266 91.3959 15.5003L91.413 15.4737C91.6246 15.1459 91.6993 14.8333 91.6371 14.5358C91.5772 14.2398 91.3667 13.9753 91.0056 13.7422C90.6312 13.5006 90.2848 13.3931 89.9664 13.4198C89.6479 13.4464 89.3855 13.5249 89.179 13.6552L88.6063 12.909C88.9393 12.6847 89.2724 12.5576 89.6054 12.5278C89.9421 12.4972 90.2644 12.5327 90.5723 12.6341C90.8839 12.7348 91.1681 12.8681 91.4251 13.0339C91.589 13.1397 91.7644 13.2812 91.9513 13.4583C92.1419 13.6347 92.2983 13.847 92.4204 14.0953C92.5448 14.345 92.5955 14.6335 92.5726 14.9607C92.5496 15.2879 92.4073 15.6542 92.1457 16.0596L89.9754 19.4222L89.1912 18.916L89.6373 18.2249L89.5974 18.1992C89.4728 18.2756 89.3077 18.3369 89.1021 18.3831C88.8966 18.4293 88.6622 18.4303 88.399 18.3859C88.1358 18.3415 87.8558 18.2236 87.559 18.032ZM88.1333 17.4048C88.4434 17.6049 88.7441 17.7127 89.0354 17.7282C89.3289 17.745 89.5921 17.6921 89.825 17.5694C90.0602 17.4482 90.2464 17.2813 90.3836 17.0686L90.8469 16.3509C90.7879 16.3694 90.6912 16.3587 90.5568 16.319C90.426 16.2786 90.2797 16.2233 90.1177 16.1533C89.9595 16.0825 89.8059 16.0117 89.6572 15.9408C89.512 15.8691 89.3938 15.8116 89.3025 15.7683C89.0815 15.6634 88.8631 15.5836 88.6473 15.529C88.4352 15.4737 88.2369 15.4697 88.0526 15.517C87.8719 15.5636 87.7173 15.6865 87.5886 15.8859C87.4127 16.1584 87.3806 16.4294 87.4921 16.6991C87.6072 16.968 87.8209 17.2032 88.1333 17.4048Z" fill="#8A8A8A"/>
<path d="M93.2644 22.2055C92.8291 21.8384 92.5409 21.4194 92.3998 20.9487C92.2588 20.478 92.2557 19.9909 92.3907 19.4873C92.5256 18.9838 92.7885 18.5003 93.1794 18.0367C93.5771 17.5651 94.0148 17.222 94.4923 17.0074C94.9736 16.7924 95.4563 16.7149 95.9404 16.7748C96.4281 16.8344 96.8816 17.0409 97.3008 17.3944C97.6273 17.6698 97.8706 17.9784 98.0306 18.3203C98.1907 18.6622 98.2626 19.0125 98.2463 19.3712C98.23 19.7299 98.1197 20.0714 97.9152 20.3956L97.2017 19.794C97.3258 19.5365 97.3629 19.247 97.3132 18.9257C97.2671 18.6041 97.0869 18.3107 96.7725 18.0456C96.4943 17.811 96.1893 17.6779 95.8573 17.6463C95.529 17.6143 95.196 17.68 94.8581 17.8435C94.524 18.0066 94.209 18.2635 93.9133 18.6142C93.6108 18.9729 93.4038 19.3329 93.2923 19.6941C93.1828 20.0571 93.1698 20.3996 93.2533 20.7218C93.3389 21.0457 93.5227 21.3266 93.8049 21.5646C93.9903 21.7209 94.1858 21.8306 94.3914 21.8936C94.5969 21.9566 94.8031 21.9718 95.0099 21.9392C95.2166 21.9067 95.4136 21.8245 95.6007 21.6925L96.3142 22.2942C96.0427 22.5343 95.7347 22.6971 95.3903 22.7825C95.0495 22.8676 94.6947 22.865 94.3259 22.7748C93.9609 22.6842 93.607 22.4944 93.2644 22.2055Z" fill="#8A8A8A"/>
<path d="M102.508 22.4862L101.94 23.0365L99.7494 20.7755L100.317 20.2252L102.508 22.4862ZM102.001 19.8716L102.651 20.542L98.492 24.5702C98.3026 24.7536 98.1872 24.9187 98.1457 25.0653C98.1079 25.212 98.1152 25.3445 98.1673 25.4628C98.2233 25.5811 98.2989 25.6895 98.3943 25.788C98.4658 25.8619 98.5283 25.9188 98.5818 25.9588C98.6371 25.997 98.6813 26.0275 98.7145 26.0504L98.2444 26.7701C98.1834 26.7411 98.1049 26.6942 98.0089 26.6293C97.9111 26.5662 97.8017 26.4722 97.6806 26.3472C97.4972 26.1578 97.3581 25.9328 97.2635 25.6721C97.1706 25.4134 97.1498 25.1436 97.2008 24.8629C97.2537 24.5841 97.4071 24.3217 97.6608 24.0759L102.001 19.8716Z" fill="#8A8A8A"/>
<path d="M101.052 30.0041L106.163 26.7205L106.65 27.479L105.852 27.9921L105.894 28.0586C106.236 27.9898 106.558 28.0256 106.861 28.166C107.167 28.305 107.426 28.5408 107.64 28.8735C107.857 29.2107 107.96 29.5404 107.951 29.8628C107.946 30.1859 107.847 30.4984 107.656 30.8001L107.69 30.8533C108.038 30.8146 108.374 30.8762 108.697 31.0382C109.023 31.1987 109.303 31.462 109.538 31.8279C109.832 32.2849 109.929 32.7505 109.83 33.2249C109.733 33.6979 109.383 34.1275 108.782 34.5138L105.362 36.7114L104.858 35.9263L108.278 33.7286C108.655 33.4863 108.858 33.21 108.887 32.8997C108.917 32.5894 108.842 32.2945 108.662 32.015C108.431 31.6557 108.144 31.4472 107.799 31.3894C107.457 31.3303 107.121 31.4069 106.791 31.6192L103.464 33.757L102.951 32.9586L106.451 30.7096C106.741 30.5229 106.915 30.2782 106.971 29.9757C107.029 29.6717 106.963 29.3711 106.772 29.0739C106.641 28.8698 106.464 28.714 106.242 28.6064C106.02 28.501 105.778 28.456 105.515 28.4713C105.256 28.4874 105.001 28.576 104.751 28.737L101.557 30.7893L101.052 30.0041Z" fill="#8A8A8A"/>
<path d="M107.077 40.9261C106.846 40.3883 106.765 39.8735 106.835 39.3815C106.908 38.8909 107.114 38.448 107.452 38.053C107.794 37.6594 108.25 37.3397 108.822 37.094C109.393 36.8483 109.942 36.7359 110.468 36.7568C110.997 36.779 111.464 36.9253 111.87 37.1956C112.28 37.4673 112.593 37.855 112.809 38.3588C112.934 38.6495 113.009 38.9573 113.034 39.2823C113.059 39.6074 113.012 39.933 112.894 40.2592C112.779 40.5844 112.572 40.8926 112.276 41.1837C111.979 41.4748 111.57 41.7323 111.05 41.9561L110.686 42.1123L108.837 37.8106L109.578 37.492L111.053 40.9218C111.367 40.7864 111.621 40.6026 111.814 40.3705C112.008 40.1408 112.127 39.8801 112.171 39.5886C112.216 39.2995 112.172 38.9999 112.039 38.6899C111.892 38.3484 111.68 38.0893 111.403 37.9127C111.13 37.7375 110.83 37.641 110.504 37.6234C110.178 37.6057 109.861 37.663 109.554 37.7953L109.06 38.0077C108.638 38.1888 108.312 38.4151 108.081 38.6864C107.854 38.9591 107.721 39.259 107.681 39.5862C107.643 39.9123 107.698 40.2486 107.847 40.595C107.944 40.8202 108.063 41.0101 108.204 41.1647C108.349 41.3207 108.514 41.4377 108.699 41.5157C108.887 41.5927 109.094 41.6259 109.319 41.6153L109.442 42.5436C109.124 42.5772 108.814 42.5369 108.512 42.4226C108.213 42.3073 107.939 42.1238 107.69 41.872C107.444 41.6192 107.239 41.3039 107.077 40.9261Z" fill="#8A8A8A"/>
<path d="M109.655 48.4096C109.608 48.2203 109.635 48.041 109.737 47.8717C109.839 47.7024 109.985 47.5943 110.174 47.5473C110.364 47.5003 110.543 47.5278 110.712 47.6297C110.882 47.7317 110.99 47.8773 111.037 48.0667C111.084 48.256 111.056 48.4353 110.954 48.6046C110.852 48.7739 110.707 48.882 110.517 48.929C110.392 48.9601 110.269 48.9567 110.148 48.9188C110.028 48.8834 109.923 48.8212 109.833 48.7322C109.746 48.6451 109.687 48.5376 109.655 48.4096Z" fill="#8A8A8A"/>
<path d="M116.469 67.6101L116.53 66.6312C116.815 66.5907 117.068 66.5047 117.291 66.3731C117.512 66.2442 117.702 66.0815 117.86 65.8852C118.019 65.6917 118.144 65.4735 118.233 65.2307C118.322 64.9879 118.374 64.7323 118.391 64.4639C118.421 63.9745 118.325 63.5234 118.102 63.1108C117.879 62.7008 117.534 62.3639 117.067 62.0999C116.6 61.8386 116.016 61.6864 115.316 61.6432C114.616 61.5999 114.018 61.6792 113.522 61.8811C113.026 62.0855 112.643 62.3775 112.371 62.7569C112.099 63.139 111.948 63.5748 111.918 64.0642C111.901 64.3326 111.922 64.5928 111.98 64.8447C112.039 65.0966 112.134 65.3283 112.266 65.5399C112.401 65.7542 112.571 65.939 112.775 66.0943C112.982 66.2523 113.223 66.3689 113.498 66.444L113.438 67.4229C113.029 67.3237 112.668 67.1667 112.354 66.9518C112.039 66.737 111.777 66.4777 111.566 66.1741C111.357 65.8707 111.205 65.5351 111.109 65.1673C111.012 64.8021 110.977 64.4156 111.002 64.0077C111.045 63.3182 111.251 62.7155 111.621 62.1995C111.991 61.6835 112.496 61.2907 113.136 61.0212C113.776 60.7516 114.522 60.6432 115.375 60.6958C116.227 60.7485 116.955 60.9479 117.557 61.2941C118.159 61.6404 118.611 62.0923 118.915 62.6499C119.219 63.2075 119.349 63.831 119.307 64.5204C119.282 64.9283 119.199 65.3075 119.058 65.6581C118.918 66.0113 118.724 66.3256 118.477 66.6009C118.233 66.8764 117.942 67.1014 117.603 67.276C117.268 67.4507 116.89 67.5621 116.469 67.6101Z" fill="#8A8A8A"/>
<path d="M109.979 71.2772C110.093 70.741 110.322 70.2979 110.664 69.9478C111.005 69.6003 111.43 69.3623 111.937 69.2338C112.444 69.1078 113.004 69.1106 113.618 69.242C114.236 69.3746 114.753 69.6024 115.166 69.9256C115.579 70.2513 115.87 70.6426 116.039 71.0994C116.207 71.5588 116.234 72.0567 116.119 72.5929C116.004 73.1291 115.776 73.5709 115.435 73.9184C115.093 74.2685 114.667 74.5062 114.158 74.6316C113.648 74.7596 113.083 74.7573 112.464 74.6247C111.851 74.4933 111.339 74.265 110.929 73.9398C110.518 73.6172 110.228 73.2262 110.06 72.7668C109.891 72.3099 109.864 71.8134 109.979 71.2772ZM110.798 71.4528C110.711 71.8602 110.744 72.2177 110.896 72.5254C111.049 72.833 111.281 73.0865 111.595 73.2857C111.908 73.485 112.263 73.6271 112.66 73.7122C113.057 73.7972 113.44 73.8133 113.81 73.7605C114.18 73.7076 114.499 73.5723 114.767 73.3547C115.035 73.137 115.212 72.8245 115.299 72.4172C115.387 72.0099 115.353 71.6521 115.198 71.3439C115.043 71.0357 114.807 70.7816 114.491 70.5819C114.176 70.3821 113.819 70.2397 113.422 70.1546C113.025 70.0695 112.643 70.0537 112.276 70.1071C111.908 70.1605 111.592 70.2963 111.327 70.5146C111.062 70.7328 110.886 71.0455 110.798 71.4528Z" fill="#8A8A8A"/>
<path d="M112.172 77.6948L108.735 76.4527L109.052 75.575L114.765 77.6398L114.459 78.4877L113.566 78.1651L113.539 78.2395C113.781 78.4782 113.94 78.7658 114.018 79.1022C114.098 79.4394 114.06 79.8238 113.904 80.2552C113.764 80.642 113.562 80.9518 113.299 81.1845C113.038 81.4182 112.718 81.5577 112.34 81.6033C111.964 81.6498 111.534 81.5852 111.048 81.4095L107.418 80.0975L107.735 79.2198L111.305 80.5103C111.754 80.6725 112.146 80.6823 112.481 80.5398C112.818 80.3981 113.06 80.124 113.207 79.7173C113.308 79.4371 113.338 79.1648 113.296 78.9002C113.253 78.6381 113.138 78.4017 112.951 78.191C112.764 77.9803 112.504 77.8149 112.172 77.6948Z" fill="#8A8A8A"/>
<path d="M110.928 86.8429L110.216 86.4978L111.59 83.6653L112.301 84.0104L110.928 86.8429ZM113.21 85.4709L112.803 86.3107L107.594 83.7846C107.357 83.6696 107.162 83.6177 107.01 83.629C106.859 83.6438 106.737 83.696 106.644 83.7855C106.552 83.8786 106.476 83.9869 106.416 84.1102C106.371 84.2027 106.339 84.281 106.32 84.3449C106.303 84.4099 106.29 84.462 106.279 84.501L105.442 84.306C105.448 84.2387 105.466 84.1489 105.494 84.0365C105.52 83.923 105.57 83.788 105.646 83.6314C105.761 83.3942 105.925 83.1864 106.137 83.0082C106.349 82.8323 106.595 82.7202 106.876 82.672C107.156 82.6261 107.455 82.6803 107.773 82.8344L113.21 85.4709Z" fill="#8A8A8A"/>
<path d="M103.862 86.6897C104.064 86.3621 104.309 86.1028 104.597 85.9119C104.888 85.7223 105.199 85.6216 105.532 85.6098C105.866 85.5994 106.202 85.698 106.539 85.9056C106.835 86.0882 107.039 86.2947 107.151 86.5248C107.265 86.7564 107.315 87.0023 107.3 87.2625C107.285 87.5228 107.231 87.7867 107.137 88.0541C107.044 88.3252 106.94 88.5905 106.823 88.85C106.67 89.1891 106.543 89.4625 106.443 89.6702C106.343 89.8815 106.292 90.0479 106.288 90.1695C106.283 90.2934 106.344 90.3947 106.472 90.4736L106.499 90.4902C106.831 90.695 107.145 90.7633 107.442 90.695C107.736 90.6289 107.996 90.413 108.222 90.0472C108.456 89.6679 108.556 89.3194 108.523 89.0016C108.49 88.6837 108.406 88.4229 108.271 88.2192L109.006 87.6312C109.237 87.9596 109.371 88.2899 109.407 88.6223C109.445 88.9583 109.416 89.2812 109.321 89.5912C109.227 89.9047 109.099 90.1917 108.939 90.452C108.836 90.6181 108.699 90.7964 108.525 90.9869C108.353 91.181 108.144 91.3417 107.898 91.469C107.651 91.5985 107.364 91.6551 107.036 91.6389C106.708 91.6227 106.339 91.488 105.929 91.2348L102.522 89.1342L103.012 88.3398L103.712 88.7716L103.737 88.7312C103.658 88.6081 103.593 88.4443 103.543 88.2398C103.492 88.0352 103.487 87.8009 103.526 87.5369C103.565 87.2728 103.677 86.9904 103.862 86.6897ZM104.501 87.2509C104.307 87.5651 104.206 87.868 104.196 88.1595C104.186 88.4533 104.244 88.7154 104.371 88.9457C104.497 89.1783 104.668 89.361 104.883 89.4939L105.611 89.9422C105.591 89.8837 105.6 89.7868 105.636 89.6516C105.674 89.52 105.726 89.3725 105.793 89.2092C105.861 89.0495 105.928 88.8945 105.996 88.7443C106.065 88.5978 106.12 88.4784 106.161 88.3862C106.262 88.1631 106.337 87.9431 106.387 87.7263C106.438 87.513 106.438 87.3147 106.387 87.1314C106.336 86.9517 106.21 86.7996 106.008 86.6751C105.732 86.5049 105.461 86.4783 105.193 86.5953C104.927 86.716 104.696 86.9345 104.501 87.2509Z" fill="#8A8A8A"/>
<path d="M99.809 92.4769C100.167 92.0341 100.58 91.7374 101.048 91.5867C101.515 91.436 102.002 91.4229 102.509 91.5474C103.015 91.672 103.504 91.9249 103.975 92.3062C104.455 92.6941 104.807 93.1246 105.031 93.5976C105.256 94.0744 105.344 94.5553 105.294 95.0405C105.244 95.5294 105.047 95.9871 104.702 96.4135C104.434 96.7456 104.13 96.9952 103.792 97.1622C103.453 97.3292 103.104 97.4083 102.745 97.3994C102.386 97.3905 102.043 97.2872 101.714 97.0895L102.301 96.3638C102.561 96.4825 102.851 96.5137 103.171 96.4573C103.492 96.4046 103.782 96.2184 104.04 95.8986C104.269 95.6157 104.396 95.308 104.421 94.9754C104.446 94.6465 104.373 94.3149 104.203 93.9805C104.033 93.6498 103.77 93.3402 103.413 93.0518C103.048 92.7567 102.684 92.5571 102.32 92.4531C101.955 92.3511 101.613 92.3452 101.292 92.4353C100.97 92.5275 100.693 92.7171 100.461 93.0041C100.308 93.1927 100.203 93.3904 100.144 93.5972C100.085 93.804 100.074 94.0105 100.111 94.2165C100.148 94.4226 100.234 94.6178 100.37 94.8022L99.7831 95.5279C99.5375 95.2614 99.3684 94.9569 99.2759 94.6142C99.1838 94.2753 99.1791 93.9205 99.2617 93.55C99.3448 93.1831 99.5272 92.8254 99.809 92.4769Z" fill="#8A8A8A"/>
<path d="M99.7176 101.725L99.1558 101.168L101.371 98.9319L101.933 99.4886L99.7176 101.725ZM102.321 101.165L101.664 101.828L97.5516 97.7527C97.3643 97.5672 97.1969 97.4552 97.0495 97.4167C96.902 97.3819 96.7697 97.3919 96.6525 97.4465C96.5354 97.5048 96.4285 97.5827 96.332 97.6801C96.2597 97.7531 96.204 97.8168 96.1651 97.871C96.1281 97.9271 96.0985 97.972 96.0763 98.0056L95.3471 97.5504C95.3748 97.4888 95.4201 97.4093 95.483 97.3121C95.5441 97.213 95.6358 97.1016 95.7583 96.978C95.9439 96.7907 96.166 96.6471 96.4247 96.5471C96.6815 96.449 96.9507 96.4226 97.2324 96.4679C97.5123 96.515 97.7777 96.6629 98.0287 96.9116L102.321 101.165Z" fill="#8A8A8A"/>
<path d="M96.5648 107.245L95.5913 107.895L89.5694 103.831L89.4904 103.884L90.9338 111.004L89.9603 111.654L85.4635 104.918L86.2266 104.408L89.6431 109.526L89.7088 109.482L88.3974 102.959L89.1342 102.467L94.6557 106.18L94.7215 106.136L91.305 101.018L92.0681 100.509L96.5648 107.245Z" fill="#8A8A8A"/>
<path d="M81.0953 106.799C81.6296 106.56 82.1432 106.472 82.6362 106.535C83.1278 106.601 83.5736 106.8 83.9735 107.132C84.3721 107.468 84.6985 107.92 84.9525 108.488C85.2066 109.056 85.327 109.603 85.3138 110.128C85.2993 110.658 85.1599 111.127 84.8956 111.537C84.63 111.95 84.2468 112.269 83.7463 112.493C83.4575 112.622 83.1507 112.702 82.8261 112.731C82.5015 112.761 82.1752 112.719 81.8473 112.606C81.5204 112.495 81.2093 112.294 80.9138 112.001C80.6184 111.709 80.355 111.304 80.1235 110.786L79.962 110.425L84.2362 108.513L84.5657 109.25L81.1578 110.774C81.2978 111.087 81.4853 111.338 81.7202 111.528C81.9527 111.718 82.2151 111.834 82.5072 111.873C82.797 111.914 83.0959 111.866 83.4039 111.728C83.7433 111.576 83.9992 111.36 84.1717 111.081C84.3429 110.805 84.4349 110.504 84.4478 110.178C84.4607 109.851 84.3988 109.535 84.262 109.23L84.0424 108.739C83.8551 108.32 83.6241 107.997 83.3495 107.771C83.0735 107.548 82.7716 107.418 82.4439 107.383C82.1172 107.35 81.7818 107.411 81.4377 107.565C81.2138 107.665 81.0257 107.786 80.8732 107.93C80.7193 108.076 80.6048 108.243 80.5294 108.43C80.4552 108.619 80.4251 108.826 80.439 109.051L79.5126 109.188C79.4743 108.87 79.5101 108.56 79.6199 108.256C79.7309 107.955 79.9103 107.679 80.1584 107.426C80.4076 107.176 80.7199 106.967 81.0953 106.799Z" fill="#8A8A8A"/>
<path d="M76.7234 108.565C76.9085 108.503 77.0894 108.517 77.2662 108.605C77.4429 108.693 77.5622 108.83 77.6239 109.015C77.6857 109.2 77.6724 109.381 77.5841 109.558C77.4957 109.735 77.359 109.854 77.174 109.916C76.9889 109.977 76.808 109.964 76.6312 109.876C76.4544 109.787 76.3352 109.651 76.2734 109.466C76.2326 109.343 76.2263 109.22 76.2546 109.097C76.2804 108.974 76.3341 108.865 76.4158 108.768C76.4958 108.674 76.5984 108.607 76.7234 108.565Z" fill="#8A8A8A"/>
<path d="M58.1616 116.852L59.1422 116.836C59.2047 117.117 59.3102 117.363 59.4587 117.574C59.6045 117.785 59.7814 117.962 59.9893 118.104C60.1947 118.248 60.4219 118.355 60.6709 118.425C60.9199 118.495 61.1788 118.527 61.4477 118.523C61.938 118.515 62.3802 118.384 62.7742 118.13C63.1656 117.875 63.4747 117.505 63.7015 117.019C63.9257 116.533 64.0321 115.939 64.0208 115.238C64.0094 114.537 63.8838 113.947 63.6441 113.468C63.4016 112.99 63.0807 112.63 62.6813 112.388C62.2792 112.147 61.833 112.03 61.3427 112.038C61.0738 112.042 60.8161 112.084 60.5695 112.161C60.3229 112.239 60.0993 112.352 59.8987 112.501C59.6954 112.651 59.5244 112.835 59.3855 113.051C59.244 113.269 59.1465 113.519 59.093 113.799L58.1124 113.815C58.1795 113.4 58.308 113.027 58.4978 112.697C58.6875 112.367 58.9256 112.085 59.2118 111.851C59.4981 111.62 59.8209 111.442 60.1801 111.317C60.5367 111.193 60.9193 111.127 61.3279 111.121C62.0185 111.11 62.6355 111.268 63.1787 111.597C63.7219 111.926 64.1528 112.399 64.4713 113.016C64.7898 113.633 64.9559 114.369 64.9698 115.223C64.9836 116.077 64.8413 116.817 64.543 117.444C64.2446 118.072 63.8293 118.558 63.297 118.904C62.7647 119.25 62.1532 119.429 61.4625 119.44C61.0539 119.447 60.6694 119.394 60.309 119.281C59.9459 119.168 59.6175 118.999 59.3239 118.775C59.0302 118.553 58.7832 118.28 58.5829 117.956C58.3825 117.635 58.2421 117.267 58.1616 116.852Z" fill="#8A8A8A"/>
<path d="M53.9074 110.66C54.4509 110.733 54.9104 110.926 55.2859 111.24C55.6587 111.553 55.9289 111.958 56.0963 112.454C56.2612 112.95 56.3018 113.509 56.2183 114.13C56.134 114.758 55.9468 115.29 55.6566 115.727C55.3638 116.164 54.9962 116.484 54.5538 116.688C54.1088 116.892 53.6146 116.957 53.0711 116.884C52.5276 116.811 52.0694 116.618 51.6966 116.304C51.3211 115.99 51.0511 115.584 50.8866 115.086C50.7195 114.587 50.6781 114.024 50.7624 113.397C50.8459 112.775 51.0339 112.247 51.3264 111.813C51.6162 111.379 51.9836 111.06 52.4286 110.856C52.871 110.652 53.3639 110.587 53.9074 110.66ZM53.7958 111.491C53.3829 111.435 53.029 111.495 52.7341 111.671C52.4391 111.847 52.2044 112.099 52.03 112.426C51.8557 112.754 51.7414 113.119 51.6874 113.522C51.6333 113.924 51.6469 114.308 51.7283 114.672C51.8096 115.037 51.9692 115.344 52.2069 115.595C52.4446 115.845 52.7699 115.997 53.1828 116.053C53.5956 116.108 53.9497 116.047 54.245 115.868C54.5403 115.69 54.7753 115.436 54.9501 115.105C55.1248 114.775 55.2392 114.409 55.2933 114.006C55.3473 113.604 55.3335 113.221 55.2518 112.859C55.1701 112.497 55.0103 112.192 54.7722 111.945C54.5341 111.698 54.2086 111.546 53.7958 111.491Z" fill="#8A8A8A"/>
<path d="M47.7141 113.353L48.6829 109.83L49.5828 110.077L47.9723 115.934L47.1029 115.695L47.3546 114.78L47.2783 114.759C47.0592 115.019 46.7851 115.2 46.4558 115.304C46.1259 115.41 45.7397 115.402 45.2974 115.281C44.9008 115.172 44.5762 114.995 44.3235 114.75C44.0701 114.508 43.9059 114.201 43.8308 113.827C43.7551 113.456 43.7857 113.022 43.9227 112.524L44.9461 108.802L45.846 109.05L44.8394 112.71C44.7129 113.17 44.7338 113.562 44.9021 113.884C45.0698 114.209 45.3621 114.429 45.779 114.543C46.0662 114.622 46.3401 114.631 46.6006 114.568C46.8586 114.505 47.0852 114.372 47.2806 114.169C47.4759 113.966 47.6204 113.694 47.7141 113.353Z" fill="#8A8A8A"/>
<path d="M38.4994 112.831L38.7877 112.094L41.719 113.242L41.4307 113.978L38.4994 112.831ZM40.0459 114.999L39.1768 114.659L41.2871 109.268C41.3832 109.022 41.4197 108.824 41.3966 108.673C41.37 108.524 41.3084 108.407 41.2118 108.321C41.1118 108.236 40.998 108.169 40.8703 108.119C40.7746 108.082 40.6941 108.056 40.6289 108.042C40.5627 108.03 40.5097 108.02 40.47 108.013L40.5989 107.163C40.6664 107.164 40.7573 107.175 40.8715 107.194C40.9867 107.211 41.1253 107.251 41.2874 107.314C41.5329 107.41 41.7528 107.557 41.9472 107.755C42.1391 107.952 42.2701 108.189 42.3402 108.465C42.4078 108.741 42.3773 109.043 42.2485 109.372L40.0459 114.999Z" fill="#8A8A8A"/>
<path d="M38.095 105.772C38.4374 105.948 38.715 106.172 38.9278 106.445C39.1394 106.719 39.264 107.022 39.3017 107.353C39.3382 107.685 39.266 108.028 39.0853 108.38C38.9263 108.689 38.7364 108.909 38.5157 109.038C38.2937 109.17 38.0524 109.239 37.7918 109.244C37.5312 109.25 37.2639 109.216 36.9899 109.144C36.7124 109.072 36.4398 108.989 36.172 108.892C35.822 108.766 35.5396 108.661 35.3247 108.577C35.1063 108.495 34.9363 108.456 34.8148 108.462C34.6909 108.467 34.5947 108.536 34.526 108.669L34.5116 108.697C34.3332 109.045 34.2897 109.363 34.3808 109.653C34.4697 109.942 34.7052 110.184 35.0874 110.38C35.4838 110.584 35.8391 110.657 36.1533 110.599C36.4676 110.541 36.7211 110.437 36.9137 110.287L37.5571 110.973C37.2478 111.229 36.9288 111.389 36.6004 111.451C36.2683 111.515 35.9441 111.511 35.6277 111.441C35.3077 111.371 35.0117 111.266 34.7397 111.127C34.5662 111.037 34.3777 110.914 34.1742 110.756C33.9672 110.599 33.7907 110.403 33.6447 110.168C33.4964 109.932 33.4175 109.65 33.4081 109.322C33.3988 108.994 33.5043 108.616 33.7248 108.187L35.5536 104.627L36.3837 105.053L36.0078 105.785L36.0501 105.807C36.1666 105.718 36.3248 105.641 36.5248 105.575C36.7248 105.509 36.958 105.485 37.2242 105.503C37.4905 105.521 37.7808 105.611 38.095 105.772ZM37.5853 106.453C37.257 106.284 36.9471 106.207 36.6557 106.22C36.362 106.232 36.1053 106.311 35.8856 106.456C35.6635 106.599 35.4946 106.784 35.379 107.009L34.9886 107.769C35.0455 107.745 35.1428 107.746 35.2804 107.772C35.4145 107.799 35.5656 107.84 35.7337 107.894C35.8981 107.949 36.0579 108.004 36.2129 108.06C36.3644 108.117 36.4877 108.163 36.5829 108.197C36.8131 108.279 37.0382 108.337 37.2584 108.37C37.4749 108.404 37.6726 108.389 37.8514 108.324C38.0266 108.26 38.1684 108.122 38.2768 107.911C38.425 107.622 38.4304 107.35 38.2929 107.092C38.1518 106.836 37.9159 106.623 37.5853 106.453Z" fill="#8A8A8A"/>
<path d="M32.0166 102.186C32.4859 102.508 32.8139 102.897 33.0004 103.351C33.187 103.806 33.2379 104.29 33.153 104.805C33.0682 105.319 32.854 105.826 32.5105 106.326C32.161 106.834 31.7591 107.219 31.3049 107.479C30.8471 107.74 30.3744 107.865 29.8868 107.853C29.3955 107.841 28.9239 107.68 28.472 107.37C28.12 107.128 27.8477 106.844 27.6548 106.52C27.462 106.195 27.3561 105.854 27.3371 105.495C27.3181 105.137 27.3944 104.786 27.566 104.443L28.3351 104.972C28.2369 105.24 28.2284 105.532 28.3094 105.847C28.3868 106.162 28.595 106.437 28.9339 106.67C29.2337 106.876 29.5504 106.978 29.8839 106.977C30.2137 106.977 30.5387 106.879 30.8589 106.683C31.1754 106.488 31.4636 106.201 31.7234 105.823C31.9893 105.436 32.16 105.058 32.2355 104.687C32.3088 104.316 32.2881 103.973 32.1733 103.661C32.0564 103.347 31.8459 103.086 31.5417 102.876C31.3418 102.739 31.1365 102.649 30.9258 102.607C30.715 102.564 30.5084 102.569 30.3058 102.622C30.1032 102.675 29.9153 102.776 29.742 102.925L28.9729 102.397C29.2195 102.131 29.51 101.939 29.8444 101.82C30.1752 101.702 30.5285 101.67 30.9044 101.723C31.2765 101.778 31.6473 101.932 32.0166 102.186Z" fill="#8A8A8A"/>
<path d="M22.7834 102.806L23.2949 102.203L25.6958 104.239L25.1842 104.842L22.7834 102.806ZM23.5432 105.358L22.8314 104.755L26.576 100.339C26.7465 100.138 26.8452 99.9625 26.8722 99.8125C26.8954 99.6629 26.8753 99.5317 26.8118 99.4191C26.7445 99.3068 26.6586 99.2063 26.5541 99.1176C26.4757 99.0511 26.4079 99.0006 26.3508 98.966C26.292 98.9334 26.245 98.9073 26.2097 98.8878L26.6072 98.1256C26.6708 98.1484 26.7535 98.1874 26.8553 98.2427C26.9588 98.2959 27.0769 98.3788 27.2096 98.4913C27.4107 98.6618 27.5711 98.8722 27.6908 99.1223C27.8085 99.3708 27.8557 99.6372 27.8323 99.9216C27.8069 100.204 27.68 100.48 27.4515 100.75L23.5432 105.358Z" fill="#8A8A8A"/>
<path d="M17.0427 100.096L16.3191 99.1762L19.9024 92.8569L19.8437 92.7823L12.8576 94.7744L12.134 93.8542L18.5005 88.8478L19.0676 89.569L14.2306 93.3727L14.2795 93.4349L20.681 91.6207L21.2286 92.317L17.9561 98.1103L18.005 98.1724L22.842 94.3687L23.4092 95.0899L17.0427 100.096Z" fill="#8A8A8A"/>
<path d="M16.286 84.6456C16.5661 85.1595 16.6943 85.6647 16.6706 86.161C16.6433 86.6563 16.4797 87.1163 16.1797 87.5411C15.8762 87.9647 15.4513 88.3255 14.905 88.6233C14.3586 88.921 13.8229 89.0839 13.2977 89.112C12.7689 89.139 12.2898 89.0368 11.8605 88.8054C11.4275 88.573 11.0798 88.216 10.8173 87.7345C10.6659 87.4567 10.5627 87.1572 10.5077 86.8359C10.4526 86.5146 10.4687 86.186 10.5559 85.8502C10.6408 85.5157 10.8175 85.1897 11.0858 84.8723C11.3542 84.5548 11.7372 84.2605 12.2349 83.9892L12.5822 83.7999L14.8231 87.9112L14.1147 88.2973L12.3281 85.0194C12.0271 85.1834 11.7914 85.39 11.6209 85.6391C11.4491 85.8858 11.3549 86.1564 11.3382 86.4508C11.3202 86.7428 11.392 87.037 11.5535 87.3333C11.7314 87.6597 11.9664 87.8979 12.2584 88.048C12.5468 88.1971 12.8542 88.2653 13.1805 88.2525C13.5069 88.2398 13.8171 88.1533 14.111 87.9931L14.5833 87.7356C14.9861 87.5161 15.2897 87.2605 15.4941 86.969C15.6949 86.6763 15.8001 86.3653 15.8096 86.0358C15.8169 85.7075 15.7303 85.3779 15.5499 85.0469C15.4325 84.8316 15.2964 84.6535 15.1416 84.5127C14.9832 84.3709 14.808 84.2697 14.6159 84.2093C14.4215 84.1501 14.2128 84.1362 13.9897 84.1677L13.7804 83.2549C14.0944 83.1919 14.4068 83.2032 14.7178 83.289C15.0264 83.3759 15.3163 83.5332 15.5875 83.7607C15.8563 83.9895 16.0892 84.2845 16.286 84.6456Z" fill="#8A8A8A"/>
<path d="M14.1692 80.3944C14.2452 80.5741 14.246 80.7555 14.1717 80.9386C14.0974 81.1217 13.9704 81.2513 13.7907 81.3272C13.6111 81.4032 13.4296 81.4041 13.2465 81.3298C13.0634 81.2555 12.9339 81.1285 12.8579 80.9488C12.7819 80.7691 12.7811 80.5877 12.8553 80.4046C12.9296 80.2215 13.0566 80.0919 13.2363 80.016C13.3553 79.9657 13.4774 79.9498 13.6026 79.9684C13.7268 79.9846 13.8403 80.0296 13.9431 80.1035C14.0425 80.176 14.1178 80.273 14.1692 80.3944Z" fill="#8A8A8A"/>
<path d="M4.47217 62.5912L4.56419 63.5676C4.28878 63.6518 4.05157 63.7761 3.85257 63.9405C3.65331 64.1023 3.49115 64.2924 3.36608 64.5107C3.23814 64.7267 3.14905 64.9615 3.09881 65.2151C3.04857 65.4688 3.03606 65.7295 3.06129 65.9972C3.1073 66.4854 3.27235 66.9161 3.55644 67.2892C3.84028 67.6597 4.23338 67.9391 4.73573 68.1274C5.23784 68.3131 5.838 68.3731 6.5362 68.3073C7.2344 68.2415 7.81279 68.0704 8.27136 67.7942C8.72969 67.5153 9.06366 67.1674 9.27329 66.7504C9.48267 66.3308 9.56435 65.8769 9.51834 65.3887C9.49311 65.121 9.43212 64.8672 9.33537 64.6274C9.23862 64.3876 9.10854 64.1734 8.94513 63.9849C8.77884 63.794 8.58272 63.6377 8.35675 63.516C8.12791 63.392 7.87165 63.3142 7.58798 63.2826L7.49596 62.3062C7.91498 62.3409 8.29638 62.44 8.64016 62.6035C8.98395 62.7671 9.28362 62.9825 9.53919 63.2497C9.79214 63.5171 9.99462 63.8251 10.1466 64.1736C10.2984 64.5194 10.3934 64.8958 10.4318 65.3026C10.4966 65.9903 10.3862 66.6177 10.1007 67.1848C9.81521 67.752 9.3772 68.2183 8.78669 68.5838C8.19617 68.9492 7.4757 69.1721 6.62526 69.2522C5.77482 69.3324 5.0254 69.2481 4.377 68.9994C3.7286 68.7506 3.21118 68.3744 2.82474 67.8706C2.4383 67.3668 2.21267 66.771 2.14786 66.0833C2.10951 65.6765 2.13258 65.289 2.21705 64.9209C2.30128 64.5502 2.44397 64.2097 2.64511 63.8994C2.84364 63.5894 3.09649 63.322 3.40366 63.097C3.7082 62.8724 4.06437 62.7038 4.47217 62.5912Z" fill="#8A8A8A"/>
<path d="M10.3179 57.8378C10.2872 58.3853 10.13 58.8584 9.8463 59.2571C9.56271 59.6532 9.18015 59.9539 8.69863 60.1593C8.21726 60.3621 7.66332 60.4459 7.03683 60.4109C6.40507 60.3755 5.86001 60.2301 5.40165 59.9747C4.94343 59.7167 4.59551 59.3751 4.3579 58.9499C4.12044 58.522 4.01703 58.0343 4.04768 57.4868C4.07833 56.9392 4.23545 56.4675 4.51904 56.0714C4.80278 55.6727 5.18665 55.3721 5.67066 55.1694C6.15481 54.9642 6.71277 54.8792 7.34453 54.9146C7.97102 54.9496 8.51206 55.0961 8.96765 55.354C9.42338 55.6092 9.76998 55.9508 10.0074 56.3787C10.2451 56.8039 10.3485 57.2903 10.3179 57.8378ZM9.4808 57.7909C9.50409 57.375 9.41663 57.0269 9.21845 56.7464C9.02026 56.466 8.75104 56.2516 8.4108 56.1031C8.07055 55.9547 7.69774 55.8691 7.29236 55.8464C6.88698 55.8237 6.50563 55.8671 6.14831 55.9765C5.79099 56.0858 5.49689 56.2687 5.26601 56.5252C5.03513 56.7816 4.90804 57.1177 4.88476 57.5336C4.86148 57.9495 4.95025 58.2978 5.15107 58.5784C5.35189 58.8589 5.62373 59.0735 5.96661 59.2221C6.30949 59.3707 6.68362 59.4563 7.089 59.479C7.49438 59.5017 7.87441 59.4583 8.2291 59.3488C8.58378 59.2392 8.87525 59.0562 9.1035 58.7996C9.33175 58.5431 9.45752 58.2068 9.4808 57.7909Z" fill="#8A8A8A"/>
<path d="M7.14715 51.8899L10.7358 52.5784L10.56 53.495L4.59439 52.3505L4.76428 51.465L5.6964 51.6438L5.7113 51.5661C5.43519 51.3682 5.23254 51.1092 5.10335 50.7891C4.97157 50.4685 4.94889 50.0829 5.03533 49.6324C5.11282 49.2285 5.26349 48.891 5.48732 48.6198C5.70856 48.3482 6.00233 48.1602 6.36863 48.056C6.73234 47.9513 7.16794 47.9476 7.67543 48.045L11.4661 48.7723L11.2902 49.6888L7.56172 48.9735C7.09307 48.8836 6.70464 48.9352 6.39643 49.1285C6.08563 49.3212 5.8895 49.6299 5.80803 50.0545C5.7519 50.3471 5.76516 50.6208 5.84782 50.8755C5.93098 51.1277 6.08158 51.3432 6.29964 51.5219C6.51769 51.7007 6.80019 51.8233 7.14715 51.8899Z" fill="#8A8A8A"/>
<path d="M6.95291 42.6298L7.70971 42.8596L6.79494 45.8717L6.03814 45.6419L6.95291 42.6298ZM4.91224 44.3411L5.18345 43.4481L10.7232 45.1305C10.9755 45.2071 11.1758 45.228 11.3242 45.1931C11.4708 45.155 11.5831 45.0844 11.6613 44.9814C11.7376 44.8751 11.7957 44.7563 11.8356 44.6252C11.8655 44.5268 11.8849 44.4445 11.894 44.3784C11.9005 44.3115 11.9058 44.258 11.9097 44.2178L12.7671 44.2798C12.7714 44.3473 12.7684 44.4387 12.7582 44.5541C12.7505 44.6702 12.7213 44.8115 12.6707 44.978C12.5941 45.2303 12.4648 45.461 12.2828 45.6703C12.1015 45.877 11.8758 46.0261 11.6055 46.1176C11.336 46.2066 11.0322 46.1997 10.6942 46.0971L4.91224 44.3411Z" fill="#8A8A8A"/>
<path d="M13.9484 41.7C13.7999 42.0551 13.5982 42.3494 13.3434 42.5829C13.0862 42.8155 12.7943 42.9634 12.4677 43.0269C12.1387 43.0894 11.7917 43.0444 11.4269 42.8918C11.1058 42.7576 10.872 42.5855 10.7254 42.3757C10.5764 42.1648 10.489 41.9296 10.4631 41.6702C10.4373 41.4108 10.4498 41.1417 10.5006 40.8629C10.55 40.5806 10.6121 40.3023 10.6869 40.0278C10.7854 39.6689 10.868 39.3791 10.9346 39.1583C10.9998 38.9341 11.0247 38.7617 11.0095 38.641C10.9952 38.5178 10.9188 38.4273 10.7801 38.3693L10.7509 38.3571C10.3909 38.2066 10.07 38.1882 9.78819 38.3018C9.50737 38.413 9.28408 38.6669 9.11832 39.0634C8.94646 39.4744 8.90171 39.8344 8.98408 40.1431C9.06645 40.4519 9.18997 40.6964 9.35463 40.8767L8.72104 41.572C8.44152 41.2836 8.25775 40.9782 8.16971 40.6556C8.08026 40.3296 8.05835 40.0061 8.10396 39.6851C8.14816 39.3607 8.22924 39.0574 8.3472 38.7753C8.42246 38.5953 8.53079 38.3977 8.6722 38.1824C8.8122 37.9638 8.99363 37.7725 9.21651 37.6085C9.4404 37.442 9.71543 37.3413 10.0416 37.3062C10.3677 37.2711 10.7534 37.3466 11.1985 37.5327L14.8909 39.0764L14.5309 39.9375L13.772 39.6202L13.7537 39.664C13.8509 39.7732 13.9404 39.9249 14.0221 40.1191C14.1038 40.3133 14.146 40.5438 14.1487 40.8107C14.1514 41.0776 14.0846 41.374 13.9484 41.7ZM13.2298 41.2452C13.3721 40.9047 13.4252 40.5897 13.3891 40.3002C13.354 40.0084 13.2555 39.7586 13.0937 39.5509C12.9329 39.3408 12.7358 39.187 12.5023 39.0893L11.7142 38.7598C11.7427 38.8146 11.7493 38.9117 11.7339 39.051C11.7171 39.1869 11.6885 39.3406 11.6482 39.5124C11.6064 39.6807 11.5637 39.8443 11.5201 40.0032C11.4751 40.1587 11.4394 40.2852 11.4129 40.3827C11.3485 40.6187 11.3085 40.8477 11.2928 41.0698C11.2757 41.2884 11.3067 41.4842 11.3858 41.6573C11.4635 41.827 11.6118 41.9575 11.8307 42.0491C12.1299 42.1741 12.4023 42.158 12.6481 42.0008C12.8925 41.84 13.0864 41.5882 13.2298 41.2452Z" fill="#8A8A8A"/>
<path d="M17.0601 35.3391C16.7749 35.832 16.4129 36.1891 15.9742 36.4104C15.5354 36.6317 15.0564 36.72 14.537 36.6753C14.0176 36.6306 13.4955 36.4564 12.9706 36.1527C12.4367 35.8437 12.0222 35.4729 11.7273 35.0403C11.4314 34.6041 11.2706 34.1425 11.2448 33.6554C11.218 33.1647 11.342 32.6821 11.6166 32.2074C11.8306 31.8378 12.0918 31.5442 12.4004 31.3268C12.709 31.1094 13.0413 30.9773 13.3973 30.9305C13.7534 30.8837 14.1089 30.9325 14.4639 31.0771L13.9964 31.8849C13.7212 31.8078 13.4297 31.8219 13.1221 31.9272C12.8135 32.0289 12.5562 32.2577 12.3502 32.6137C12.168 32.9286 12.0904 33.2522 12.1173 33.5846C12.1433 33.9134 12.2664 34.2298 12.4864 34.5338C12.7056 34.8342 13.0136 35.0993 13.4107 35.3291C13.8169 35.5641 14.2075 35.7049 14.5827 35.7514C14.9592 35.7956 15.2987 35.7484 15.6013 35.6098C15.9052 35.4689 16.1496 35.2387 16.3345 34.9192C16.456 34.7092 16.5297 34.4976 16.5557 34.2842C16.5817 34.0708 16.5606 33.8651 16.4924 33.6672C16.4241 33.4694 16.3087 33.2899 16.146 33.1287L16.6135 32.3209C16.8974 32.5461 17.1116 32.8209 17.256 33.1451C17.3995 33.4657 17.459 33.8154 17.4347 34.1943C17.4095 34.5696 17.2846 34.9512 17.0601 35.3391Z" fill="#8A8A8A"/>
<path d="M15.7188 26.1918L16.3598 26.6551L14.5162 29.2066L13.8751 28.7434L15.7188 26.1918ZM13.2328 27.1474L13.7795 26.3909L18.4722 29.7817C18.6859 29.9361 18.8686 30.0209 19.0202 30.0362C19.1713 30.0477 19.3005 30.0175 19.4078 29.9454C19.5146 29.8697 19.6081 29.7763 19.6884 29.6651C19.7486 29.5818 19.7938 29.5103 19.8238 29.4507C19.8517 29.3896 19.8741 29.3407 19.8908 29.304L20.6815 29.6411C20.6637 29.7063 20.6312 29.7918 20.5841 29.8976C20.539 30.0049 20.4656 30.1291 20.3636 30.2702C20.2092 30.4838 20.012 30.6601 19.7719 30.7988C19.5333 30.9354 19.2713 31.0031 18.986 31.0019C18.7022 30.9985 18.4171 30.8933 18.1308 30.6864L13.2328 27.1474Z" fill="#8A8A8A"/>
<path d="M17.9784 20.2557L18.8398 19.4631L25.4176 22.5463L25.4875 22.482L22.9604 15.6712L23.8218 14.8785L29.3061 20.8382L28.631 21.4595L24.4642 16.9315L24.406 16.9851L26.7104 23.2269L26.0585 23.8268L20.0293 21.0126L19.9711 21.0662L24.1379 25.5942L23.4628 26.2155L17.9784 20.2557Z" fill="#8A8A8A"/>
<path d="M33.3294 18.2997C32.8388 18.6189 32.3451 18.786 31.8485 18.8009C31.3525 18.8122 30.8812 18.6848 30.4344 18.4188C29.9884 18.1491 29.5958 17.7535 29.2564 17.2319C28.9171 16.7104 28.713 16.189 28.6443 15.6675C28.5763 15.1425 28.6409 14.6569 28.8382 14.2108C29.0363 13.7611 29.3651 13.3867 29.8248 13.0876C30.09 12.9151 30.3806 12.7889 30.6967 12.7091C31.0127 12.6292 31.3415 12.6197 31.6831 12.6806C32.0232 12.7392 32.3619 12.89 32.6992 13.1329C33.0366 13.3757 33.3598 13.7347 33.669 14.2099L33.8846 14.5413L29.96 17.095L29.52 16.4188L32.6491 14.3828C32.4622 14.0955 32.2379 13.8765 31.9764 13.7259C31.717 13.5738 31.4399 13.5009 31.1452 13.5071C30.8526 13.5119 30.5649 13.6063 30.282 13.7904C29.9704 13.9931 29.7512 14.2459 29.6242 14.5487C29.498 14.8478 29.454 15.1596 29.492 15.4839C29.5301 15.8083 29.6404 16.1108 29.823 16.3915L30.1164 16.8423C30.3666 17.2268 30.6449 17.5096 30.9515 17.6907C31.2589 17.8682 31.5772 17.9489 31.9064 17.9328C32.2342 17.9145 32.5561 17.8026 32.8721 17.597C33.0776 17.4632 33.2446 17.3137 33.3729 17.1484C33.502 16.9795 33.5893 16.7969 33.6346 16.6007C33.6785 16.4023 33.6761 16.1931 33.6273 15.9732L34.5211 15.6936C34.6084 16.0017 34.6214 16.3141 34.5601 16.6308C34.4973 16.9452 34.3631 17.2465 34.1573 17.5345C33.9501 17.8203 33.6741 18.0754 33.3294 18.2997Z" fill="#8A8A8A"/>
<path d="M37.3815 15.8693C37.2083 15.9591 37.0275 15.9742 36.8392 15.9145C36.6508 15.8548 36.5117 15.7384 36.4218 15.5652C36.332 15.3921 36.3169 15.2113 36.3765 15.0229C36.4362 14.8345 36.5526 14.6954 36.7258 14.6056C36.899 14.5157 37.0798 14.5006 37.2681 14.5603C37.4565 14.62 37.5957 14.7364 37.6855 14.9096C37.745 15.0242 37.7704 15.1447 37.7617 15.271C37.7553 15.3961 37.7193 15.5128 37.6537 15.6211C37.5892 15.7258 37.4985 15.8085 37.3815 15.8693Z" fill="#8A8A8A"/>
</svg>
