<svg width="70" height="24" viewBox="0 0 70 24" fill="none" xmlns="http://www.w3.org/2000/svg">
<g clip-path="url(#clip0_77_3035)">
<path d="M26.462 18.9219C26.6376 18.9219 26.8103 18.8897 26.98 18.8253C27.1555 18.761 27.3223 18.6732 27.4803 18.562C27.6442 18.4508 27.7993 18.325 27.9456 18.1845C28.0977 18.0382 28.2382 17.8861 28.3669 17.728L28.4547 17.7719L27.8841 19.1852C27.8139 19.2204 27.7261 19.2643 27.6208 19.3169C27.5213 19.3637 27.3984 19.4076 27.2521 19.4486C27.1116 19.4954 26.9449 19.5335 26.7517 19.5627C26.5586 19.5978 26.3304 19.6154 26.067 19.6154C25.2828 19.6154 24.6713 19.4047 24.2324 18.9833C23.7993 18.5561 23.5828 17.8919 23.5828 16.9907V11.1355L22.108 11.1882V10.4157C22.2894 10.4274 22.506 10.4362 22.7576 10.442C23.0092 10.4479 23.2843 10.4508 23.5828 10.4508C23.5769 10.0353 23.5652 9.66954 23.5476 9.35352C23.5359 9.03165 23.5184 8.75367 23.495 8.51958C23.4774 8.27964 23.454 8.07774 23.4247 7.91388C23.3955 7.75002 23.3662 7.61249 23.337 7.5013V7.46618H25.3648V7.5013C25.3296 7.61249 25.2975 7.75002 25.2682 7.91388C25.2389 8.07774 25.2126 8.27672 25.1892 8.51081C25.1716 8.74489 25.1541 9.02287 25.1365 9.34475C25.1248 9.66077 25.116 10.0295 25.1102 10.4508C25.4789 10.445 25.8388 10.4391 26.1899 10.4333C26.5469 10.4216 26.8688 10.4098 27.1555 10.3981C27.4481 10.3806 27.6939 10.366 27.8929 10.3543C28.0977 10.3367 28.2323 10.3221 28.2967 10.3104L28.1387 11.2058C27.8402 11.1999 27.5272 11.1911 27.1994 11.1794C26.9185 11.1677 26.5967 11.1589 26.2338 11.1531C25.871 11.1472 25.4964 11.1414 25.1102 11.1355V17.175C25.1102 17.5378 25.1482 17.8334 25.2243 18.0616C25.3062 18.284 25.4087 18.4596 25.5315 18.5883C25.6603 18.7171 25.8037 18.8049 25.9617 18.8517C26.1255 18.8985 26.2923 18.9219 26.462 18.9219ZM30.1841 13.8831C30.1841 13.3857 30.1753 12.9526 30.1577 12.5839C30.146 12.2094 30.1285 11.8875 30.1051 11.6183C30.0875 11.3491 30.0612 11.1238 30.026 10.9424C29.9968 10.761 29.9646 10.6088 29.9295 10.4859V10.4508H31.9573V10.4859C31.9105 10.6205 31.8695 10.7844 31.8344 10.9775C31.8051 11.1706 31.7817 11.4194 31.7642 11.7237C31.9807 11.5423 32.206 11.3638 32.4401 11.1882C32.6742 11.0126 32.9141 10.8575 33.1599 10.7229C33.4057 10.5883 33.6544 10.4801 33.9061 10.3981C34.1636 10.3162 34.4211 10.2752 34.6786 10.2752C34.8366 10.2752 34.9741 10.284 35.0911 10.3016C35.2082 10.3133 35.3135 10.3338 35.4072 10.363C35.5008 10.3864 35.5857 10.4157 35.6617 10.4508C35.7378 10.4801 35.811 10.5093 35.8812 10.5386L35.4511 12.2153L35.3018 12.1801C35.2316 11.9226 35.0999 11.7178 34.9068 11.5657C34.7137 11.4077 34.4503 11.3286 34.1167 11.3286C33.9353 11.3286 33.7451 11.3608 33.5462 11.4252C33.3472 11.4896 33.1453 11.5803 32.9405 11.6973C32.7356 11.8085 32.5308 11.9402 32.326 12.0924C32.1211 12.2387 31.9222 12.3938 31.729 12.5576C31.7173 12.7273 31.7115 12.9117 31.7115 13.1106C31.7115 13.3096 31.7115 13.5203 31.7115 13.7427V16.0075C31.7115 16.5049 31.7173 16.9409 31.729 17.3155C31.7407 17.6842 31.7583 18.0031 31.7817 18.2723C31.8051 18.5415 31.8315 18.7668 31.8607 18.9482C31.89 19.1297 31.9222 19.2818 31.9573 19.4047V19.4398H29.9295V19.4047C29.9646 19.2818 29.9968 19.1297 30.026 18.9482C30.0612 18.7668 30.0875 18.5415 30.1051 18.2723C30.1285 18.0031 30.146 17.6842 30.1577 17.3155C30.1753 16.9409 30.1841 16.5049 30.1841 16.0075V13.8831ZM36.1709 16.8502C36.1709 16.3879 36.2645 15.987 36.4518 15.6476C36.6449 15.3082 36.8995 15.0185 37.2155 14.7785C37.5315 14.5386 37.8914 14.3455 38.2952 14.1992C38.699 14.047 39.1175 13.93 39.5505 13.848C39.9836 13.7602 40.4108 13.7017 40.8322 13.6725C41.2535 13.6373 41.6398 13.6169 41.9909 13.611V13.1633C41.9909 12.7771 41.9412 12.4435 41.8417 12.1626C41.7422 11.8817 41.6017 11.6505 41.4203 11.4691C41.2389 11.2818 41.0194 11.1443 40.7619 11.0565C40.5103 10.9629 40.2323 10.9161 39.928 10.9161C39.7173 10.9161 39.5096 10.9336 39.3047 10.9687C39.0999 11.0038 38.8863 11.0624 38.6639 11.1443C38.4474 11.2262 38.2162 11.3374 37.9704 11.4779C37.7305 11.6183 37.4701 11.7968 37.1892 12.0134L37.1014 11.9607L37.6983 10.7229C37.8914 10.6352 38.0816 10.5649 38.2689 10.5123C38.4562 10.4537 38.6464 10.4069 38.8395 10.3718C39.0326 10.3367 39.2287 10.3133 39.4276 10.3016C39.6325 10.284 39.8461 10.2752 40.0685 10.2752C40.6829 10.2752 41.2067 10.3513 41.6398 10.5035C42.0787 10.6498 42.4357 10.8546 42.7107 11.118C42.9916 11.3755 43.1965 11.6798 43.3252 12.0309C43.454 12.3762 43.5183 12.7478 43.5183 13.1458V16.0075C43.5183 16.5049 43.5242 16.9409 43.5359 17.3155C43.5534 17.6842 43.571 18.0031 43.5886 18.2723C43.612 18.5415 43.6383 18.7668 43.6676 18.9482C43.7027 19.1297 43.7378 19.2818 43.7729 19.4047V19.4398H41.8329V19.4047C41.8622 19.3111 41.8826 19.2057 41.8943 19.0887C41.9119 18.9716 41.9265 18.8312 41.9382 18.6673C41.8153 18.7727 41.669 18.8809 41.4993 18.9921C41.3355 19.1033 41.1453 19.2057 40.9287 19.2994C40.718 19.3871 40.481 19.4574 40.2177 19.51C39.9602 19.5686 39.6764 19.5978 39.3662 19.5978C38.3479 19.5978 37.5608 19.3608 37.0048 18.8868C36.4489 18.4069 36.1709 17.728 36.1709 16.8502ZM41.9909 14.2957C41.4584 14.3016 40.9463 14.3338 40.4547 14.3923C39.9631 14.445 39.5271 14.5591 39.1467 14.7346C38.7722 14.9102 38.4708 15.1618 38.2426 15.4896C38.0202 15.8114 37.909 16.2416 37.909 16.78C37.909 17.4705 38.0816 17.9972 38.4269 18.3601C38.7722 18.7229 39.2491 18.9043 39.8578 18.9043C40.1387 18.9043 40.3933 18.8663 40.6215 18.7902C40.8556 18.7083 41.0604 18.6088 41.236 18.4918C41.4174 18.3689 41.5695 18.2372 41.6924 18.0967C41.8153 17.9504 41.909 17.81 41.9733 17.6754C41.9851 17.453 41.9909 17.2072 41.9909 16.938C41.9909 16.6629 41.9909 16.3528 41.9909 16.0075V14.2957ZM53.473 17.57L52.8234 19.1326C52.6653 19.2028 52.4839 19.2672 52.2791 19.3257C52.0743 19.3842 51.8607 19.434 51.6383 19.4749C51.4218 19.5159 51.2023 19.5452 50.9799 19.5627C50.7575 19.5861 50.5468 19.5978 50.3479 19.5978C49.6398 19.5978 48.9843 19.4954 48.3815 19.2906C47.7846 19.0799 47.2667 18.7756 46.8278 18.3776C46.3947 17.9797 46.0553 17.491 45.8095 16.9117C45.5637 16.3323 45.4408 15.671 45.4408 14.9278C45.4408 14.2665 45.5666 13.6549 45.8183 13.0931C46.0758 12.5254 46.4298 12.0338 46.8804 11.6183C47.3369 11.2028 47.8724 10.878 48.4869 10.6439C49.1013 10.4098 49.7685 10.2928 50.4883 10.2928C50.816 10.2928 51.1672 10.3221 51.5417 10.3806C51.9163 10.4333 52.2498 10.5035 52.5425 10.5913L53.1657 12.0836L53.0604 12.145C52.9141 11.9636 52.7385 11.7998 52.5337 11.6534C52.3347 11.5013 52.1123 11.3725 51.8665 11.2672C51.6266 11.1619 51.372 11.0799 51.1028 11.0214C50.8336 10.9629 50.5586 10.9336 50.2776 10.9336C49.8212 10.9336 49.4057 11.0156 49.0311 11.1794C48.6566 11.3374 48.3347 11.5686 48.0655 11.8729C47.7963 12.1772 47.5856 12.5518 47.4335 12.9965C47.2872 13.4354 47.214 13.9358 47.214 14.4976C47.214 15.1297 47.2842 15.7178 47.4247 16.2621C47.571 16.8063 47.7846 17.2804 48.0655 17.6842C48.3523 18.0821 48.7093 18.3952 49.1365 18.6234C49.5695 18.8458 50.0757 18.957 50.6551 18.957C50.9243 18.957 51.1906 18.9248 51.4539 18.8604C51.7231 18.7902 51.9748 18.6937 52.2089 18.5708C52.4488 18.442 52.6683 18.2899 52.8673 18.1143C53.0662 17.9387 53.233 17.7398 53.3676 17.5174L53.473 17.57ZM55.255 9.74855C55.255 9.25111 55.2462 8.81805 55.2286 8.44936C55.2169 8.07482 55.1994 7.75294 55.1759 7.48374C55.1584 7.21454 55.1321 6.98923 55.0969 6.80781C55.0677 6.62639 55.0355 6.47423 55.0004 6.35134V6.31622H57.0282V6.35134C56.9931 6.47423 56.9609 6.62639 56.9316 6.80781C56.9024 6.98923 56.876 7.21454 56.8526 7.48374C56.8292 7.75294 56.8116 8.07482 56.7999 8.44936C56.7882 8.81805 56.7824 9.25111 56.7824 9.74855V14.1202L59.6529 11.5481C60.1562 11.1092 60.4078 10.7434 60.4078 10.4508H62.4444V10.4859C62.2922 10.5327 62.1459 10.5942 62.0055 10.6703C61.8709 10.7405 61.7334 10.8254 61.5929 10.9248C61.4583 11.0243 61.3149 11.1385 61.1628 11.2672C61.0165 11.3901 60.8555 11.5305 60.68 11.6886L58.1079 14.0324L61.6368 18.2021C61.7421 18.3308 61.8563 18.4625 61.9791 18.5971C62.102 18.7258 62.2249 18.8458 62.3478 18.957C62.4707 19.0682 62.5907 19.1648 62.7078 19.2467C62.8248 19.3286 62.9331 19.3813 63.0325 19.4047V19.4398H60.4868C60.4868 19.2877 60.4459 19.1297 60.3639 18.9658C60.2879 18.8019 60.1474 18.5942 59.9426 18.3425L56.7824 14.5854V16.0075C56.7824 16.5049 56.7882 16.9409 56.7999 17.3155C56.8116 17.6842 56.8292 18.0031 56.8526 18.2723C56.876 18.5415 56.9024 18.7668 56.9316 18.9482C56.9609 19.1297 56.9931 19.2818 57.0282 19.4047V19.4398H55.0004V19.4047C55.0355 19.2818 55.0677 19.1297 55.0969 18.9482C55.1321 18.7668 55.1584 18.5415 55.1759 18.2723C55.1994 18.0031 55.2169 17.6842 55.2286 17.3155C55.2462 16.9409 55.255 16.5049 55.255 16.0075V9.74855ZM63.9982 13.8831C63.9982 13.3857 63.9894 12.9526 63.9718 12.5839C63.9601 12.2094 63.9426 11.8875 63.9192 11.6183C63.9016 11.3491 63.8753 11.1238 63.8402 10.9424C63.8109 10.761 63.7787 10.6088 63.7436 10.4859V10.4508H65.7714V10.4859C65.7246 10.6205 65.6836 10.7844 65.6485 10.9775C65.6192 11.1706 65.5958 11.4194 65.5783 11.7237C65.7948 11.5423 66.0201 11.3638 66.2542 11.1882C66.4883 11.0126 66.7282 10.8575 66.974 10.7229C67.2198 10.5883 67.4685 10.4801 67.7202 10.3981C67.9777 10.3162 68.2352 10.2752 68.4927 10.2752C68.6507 10.2752 68.7882 10.284 68.9052 10.3016C69.0223 10.3133 69.1276 10.3338 69.2213 10.363C69.3149 10.3864 69.3998 10.4157 69.4758 10.4508C69.5519 10.4801 69.6251 10.5093 69.6953 10.5386L69.2652 12.2153L69.1159 12.1801C69.0457 11.9226 68.914 11.7178 68.7209 11.5657C68.5278 11.4077 68.2644 11.3286 67.9309 11.3286C67.7494 11.3286 67.5592 11.3608 67.3603 11.4252C67.1613 11.4896 66.9594 11.5803 66.7546 11.6973C66.5497 11.8085 66.3449 11.9402 66.1401 12.0924C65.9352 12.2387 65.7363 12.3938 65.5431 12.5576C65.5314 12.7273 65.5256 12.9117 65.5256 13.1106C65.5256 13.3096 65.5256 13.5203 65.5256 13.7427V16.0075C65.5256 16.5049 65.5314 16.9409 65.5431 17.3155C65.5549 17.6842 65.5724 18.0031 65.5958 18.2723C65.6192 18.5415 65.6456 18.7668 65.6748 18.9482C65.7041 19.1297 65.7363 19.2818 65.7714 19.4047V19.4398H63.7436V19.4047C63.7787 19.2818 63.8109 19.1297 63.8402 18.9482C63.8753 18.7668 63.9016 18.5415 63.9192 18.2723C63.9426 18.0031 63.9601 17.6842 63.9718 17.3155C63.9894 16.9409 63.9982 16.5049 63.9982 16.0075V13.8831Z" fill="#1C7F2F"/>
<path fill-rule="evenodd" clip-rule="evenodd" d="M11.5578 11.6091C12.2225 12.3453 13.0992 12.7406 13.9759 13.1358L3.553 9.8552C2.56574 9.41079 1.57847 8.96638 0.878749 7.87383C0.179018 6.78127 -0.233171 5.04058 0.141364 3.52785C0.5159 2.01513 1.67716 0.730389 2.9095 0.0817766C4.14186 -0.566839 5.44529 -0.579341 6.57379 -0.29797C7.7023 -0.0165873 8.65586 0.558645 9.34523 1.29908C10.0346 2.03949 10.4598 2.9451 10.6022 3.82823C10.7447 4.71136 10.6045 5.57201 10.4549 6.38325C10.3053 7.1945 10.1463 7.95635 10.2933 8.87593C10.4403 9.79548 10.893 10.8728 11.5578 11.6091ZM5.68532 2.01849C6.72433 2.34491 7.302 3.4518 6.97559 4.49079C6.64917 5.52979 5.54229 6.10746 4.50329 5.78105C3.46428 5.45464 2.88662 4.34776 3.21303 3.30875C3.53944 2.26975 4.64634 1.69209 5.68532 2.01849Z" fill="#1D8230"/>
<path d="M10.2632 9.17209C10.0393 8.20574 10.2165 7.26054 10.3937 6.31531L7.12421 16.7417C6.92419 17.8058 6.72419 18.8698 7.2203 20.0687C7.71642 21.2675 8.90866 22.6011 10.3638 23.1589C11.819 23.7168 13.537 23.4988 14.7738 22.8589C16.0107 22.2188 16.7662 21.1567 17.1808 20.07C17.5953 18.9833 17.6688 17.8721 17.4556 16.8832C17.2425 15.8943 16.7427 15.0276 16.0998 14.4057C15.4567 13.7837 14.6705 13.4066 13.9194 13.0654C13.1684 12.7242 12.4525 12.4189 11.7822 11.7724C11.1118 11.126 10.4871 10.1385 10.2632 9.17209Z" fill="url(#paint0_linear_77_3035)"/>
<path d="M9.32792 1.3259C8.6632 0.589628 7.78649 0.194418 6.90979 -0.200806L17.3327 3.07976C18.32 3.52418 19.3072 3.9686 20.007 5.06117C20.7067 6.15372 21.1189 7.89443 20.7443 9.40712C20.3698 10.9198 19.2085 12.2046 17.9762 12.8532C16.7438 13.5018 15.4405 13.5143 14.312 13.2329C13.1835 12.9515 12.2298 12.3763 11.5404 11.6359C10.8511 10.8954 10.4259 9.98988 10.2835 9.10677C10.141 8.22363 10.2813 7.363 10.4308 6.55175C10.5804 5.7405 10.7393 4.97865 10.5924 4.05907C10.4454 3.13948 9.99268 2.06216 9.32792 1.3259Z" fill="#91D400"/>
</g>
<defs>
<linearGradient id="paint0_linear_77_3035" x1="-11.68" y1="12.4315" x2="-12.0872" y2="19.3138" gradientUnits="userSpaceOnUse">
<stop offset="0.00556586" stop-color="#0A0E0C"/>
<stop offset="0.113173" stop-color="#113C1A"/>
<stop offset="0.194805" stop-color="#176025"/>
<stop offset="0.246753" stop-color="#196E29"/>
<stop offset="0.473098" stop-color="#1C7D2E"/>
<stop offset="1" stop-color="#1D8230"/>
</linearGradient>
<clipPath id="clip0_77_3035">
<rect width="70" height="23.9154" fill="white" transform="translate(0 0.0422363)"/>
</clipPath>
</defs>
</svg>
