<svg width="126" height="95" viewBox="0 0 126 95" fill="none" xmlns="http://www.w3.org/2000/svg">
<path d="M42.7925 59.9437C43.6649 61.8106 47.25 69.9418 43.7234 75.4581C37.9003 84.5658 15.5312 82.1154 11.7602 72.3546C9.15231 65.6053 15.3586 55.1614 18.8974 55.5973C24.3344 56.2619 28.6593 83.221 22.0009 86.6296C17.3639 89.0031 6.12758 80.6091 2.45044 70.8032C-2.83198 56.7192 6.60401 37.3882 26.0352 22.0822" stroke="#059A8E" stroke-width="0.580053" stroke-miterlimit="10" stroke-linecap="round" stroke-dasharray="2.8 2.8"/>
<path d="M36.2695 19.329L20.9053 10.6571L43.4795 0.994995L36.2695 19.329Z" fill="url(#paint0_linear_848_2867)" stroke="#059A8E" stroke-width="0.0578896"/>
<path d="M29.2822 15.3856L25.4629 13.2303L43.3037 1.13074L29.2822 15.3856Z" fill="url(#paint1_linear_848_2867)" stroke="#059A8E" stroke-width="0.0578896"/>
<path d="M29.2539 15.4362L28.1025 19.8248L25.4648 13.2985L29.2539 15.4362Z" fill="url(#paint2_linear_848_2867)" stroke="#059A8E" stroke-width="0.0578896"/>
<path d="M31.3945 16.6451L28.1641 19.8209L29.3057 15.4655L31.3945 16.6451Z" fill="#059A8E" stroke="#059A8E" stroke-width="0.0578896"/>
<path opacity="0.76" d="M68.4453 88.7677C84.084 88.7677 98.242 89.0651 108.49 89.547C113.614 89.7879 117.761 90.0752 120.626 90.3937C122.059 90.5529 123.17 90.7197 123.923 90.8927C124.299 90.9792 124.585 91.0672 124.775 91.1554C124.871 91.1995 124.941 91.2429 124.986 91.2853C125.032 91.3278 125.051 91.3667 125.051 91.4015C125.051 91.4361 125.032 91.4744 124.986 91.5167C124.941 91.5591 124.871 91.6035 124.775 91.6476C124.585 91.7358 124.299 91.8228 123.923 91.9093C123.17 92.0823 122.059 92.25 120.626 92.4093C117.761 92.7278 113.614 93.0141 108.49 93.255C98.242 93.7369 84.084 94.0353 68.4453 94.0353C52.8064 94.0353 38.6477 93.7369 28.3994 93.255C23.2756 93.0141 19.1295 92.7278 16.2646 92.4093C14.832 92.25 13.7205 92.0823 12.9678 91.9093C12.5913 91.8228 12.3058 91.7358 12.1152 91.6476C12.0198 91.6034 11.9501 91.5592 11.9043 91.5167C11.8586 91.4743 11.8399 91.4362 11.8398 91.4015C11.8398 91.3667 11.8585 91.3278 11.9043 91.2853C11.9501 91.2429 12.0201 91.1995 12.1152 91.1554C12.3058 91.0672 12.5912 90.9792 12.9678 90.8927C13.7205 90.7197 14.8321 90.5529 16.2646 90.3937C19.1295 90.0752 23.2755 89.7879 28.3994 89.547C38.6477 89.0651 52.8064 88.7677 68.4453 88.7677Z" fill="#A4A4A4" stroke="#059A8E" stroke-width="0.0578896"/>
<path d="M68.4434 10.4584C69.7813 10.4584 71.0839 10.8752 72.1709 11.6478L72.3857 11.807L109.25 43.1478V90.9935H27.6377V43.1469L64.502 11.807C65.6298 10.9327 67.0163 10.4584 68.4434 10.4584Z" fill="#059A8E" stroke="#059A8E" stroke-width="0.0578896"/>
<path d="M44.1523 17.7811H92.7363C94.6111 17.7811 96.4087 18.5258 97.7344 19.8514C99.06 21.1771 99.8056 22.9748 99.8057 24.8495V86.7626H37.084V24.8495C37.084 22.9748 37.8287 21.1771 39.1543 19.8514C40.4799 18.5258 42.2776 17.7812 44.1523 17.7811Z" fill="#E6E6E6" stroke="#059A8E" stroke-width="0.0578896"/>
<path d="M27.6377 90.9623L62.7266 63.7728L27.6377 43.2133V90.9623Z" fill="url(#paint3_linear_848_2867)" stroke="#059A8E" stroke-width="0.0578896"/>
<path d="M109.252 90.9623L74.1631 63.7728L109.252 43.2133V90.9623Z" fill="url(#paint4_linear_848_2867)" stroke="#059A8E" stroke-width="0.0578896"/>
<path d="M68.4453 61.1212C69.8728 61.1212 71.2604 61.5953 72.3887 62.4698L109.197 90.9933H27.6934L64.5029 62.4698C65.6311 61.5954 67.018 61.1213 68.4453 61.1212Z" fill="#059A8E" stroke="#059A8E" stroke-width="0.0578896"/>
<path d="M98.9353 3.28305C99.0359 2.66365 99.6191 2.2426 100.239 2.34299C100.858 2.44355 101.279 3.02767 101.178 3.64716C101.078 4.2665 100.494 4.68664 99.8744 4.5861C99.2552 4.48542 98.8349 3.90235 98.9353 3.28305Z" fill="white" stroke="#059A8E" stroke-width="0.0578896"/>
<path d="M103.438 3.19719C103.582 2.58646 104.193 2.20776 104.804 2.35176C105.415 2.49592 105.794 3.10837 105.649 3.71919C105.505 4.32986 104.893 4.70759 104.282 4.56345C103.672 4.41919 103.294 3.80783 103.438 3.19719Z" fill="white" stroke="#059A8E" stroke-width="0.0578896"/>
<path d="M107.928 3.28269C108.029 2.66328 108.612 2.24224 109.232 2.34263C109.851 2.44319 110.272 3.0273 110.172 3.64679C110.071 4.26613 109.487 4.68627 108.868 4.58573C108.248 4.48506 107.828 3.90198 107.928 3.28269Z" fill="white" stroke="#059A8E" stroke-width="0.0578896"/>
<path d="M19.4502 82.8497L19.4551 82.8566L19.4619 82.8605L20.4912 83.423L19.4619 83.9865L19.4551 83.9904L19.4502 83.9982L18.8877 85.0265L18.3252 83.9982L18.3213 83.9904L18.3135 83.9865L17.2842 83.423L18.3135 82.8605L18.3213 82.8566L18.3252 82.8497L18.8877 81.8195L19.4502 82.8497Z" fill="#059A8E" stroke="#059A8E" stroke-width="0.0578896"/>
<path d="M69.8477 26.6632C73.2148 26.6633 75.9682 27.807 77.8799 29.7638C79.7916 31.7207 80.8642 34.4927 80.8643 37.7521C80.8643 43.4393 77.0481 46.2842 73.7998 46.2843C72.0054 46.2843 70.5541 45.4364 70.2275 43.9357L70.2227 43.9132H70.1221L70.1133 43.9259C69.2499 45.1552 67.6539 45.9941 66.3838 45.9943C65.1732 45.9943 64.1536 45.538 63.4365 44.7286C62.7192 43.919 62.3018 42.7534 62.3018 41.3302C62.3018 39.4339 62.9816 37.5293 64.1064 36.0997C65.2312 34.6703 66.7995 33.717 68.5771 33.7169C69.0828 33.7169 69.5381 33.8282 69.9307 34.0743C70.3231 34.3205 70.6555 34.703 70.9141 35.2491L70.9219 35.2657H71.0225L71.0293 35.2462L71.4775 33.9669H74.2373L72.8242 40.8009C72.6039 41.7084 72.6118 42.3875 72.8545 42.8409C73.099 43.2976 73.5768 43.5177 74.2725 43.5177C75.2307 43.5177 76.1711 42.9605 76.8711 41.9777C77.5712 40.9945 78.0322 39.5834 78.0322 37.8683C78.0322 35.6328 77.4307 33.5108 76.0586 31.9474C74.6859 30.3833 72.5452 29.382 69.4766 29.382C64.1344 29.382 58.8478 33.9522 58.8477 40.9884C58.8477 44.0722 59.9142 46.3545 61.5918 47.8654C63.2691 49.3758 65.5547 50.1134 67.9873 50.1134C69.5876 50.1133 71.4145 49.5979 72.708 48.9249L73.6875 51.3663C71.7989 52.375 69.8266 52.8301 67.6162 52.8302C64.4986 52.8299 61.5467 51.8855 59.375 49.9484C57.2039 48.0116 55.8097 45.0803 55.8096 41.1027C55.8096 32.4043 62.2028 26.6632 69.8477 26.6632ZM68.7188 36.5861C67.7777 36.5861 67.0219 37.2405 66.5029 38.1222C65.9836 39.0045 65.6963 40.1211 65.6963 41.0616C65.6963 41.7599 65.8523 42.2883 66.1406 42.6427C66.4298 42.9979 66.8496 43.1748 67.3682 43.1749C68.0314 43.1743 68.6577 42.7863 69.4551 41.7501L69.459 41.7531L69.4619 41.7374L70.2031 37.5226L70.2051 37.5128L70.2002 37.504C69.8728 36.9172 69.369 36.5861 68.7188 36.5861Z" fill="#059A8E" stroke="#059A8E" stroke-width="0.0578896"/>
<defs>
<linearGradient id="paint0_linear_848_2867" x1="26.3843" y1="15.3707" x2="43.4282" y2="0.818524" gradientUnits="userSpaceOnUse">
<stop stop-color="#059A8E"/>
<stop stop-color="#07867B"/>
</linearGradient>
<linearGradient id="paint1_linear_848_2867" x1="29.8363" y1="12.2791" x2="43.261" y2="0.628791" gradientUnits="userSpaceOnUse">
<stop stop-color="#059A8E"/>
<stop stop-color="#07867B"/>
</linearGradient>
<linearGradient id="paint2_linear_848_2867" x1="26.356" y1="18.4662" x2="30.6912" y2="16.7215" gradientUnits="userSpaceOnUse">
<stop stop-color="#059A8E"/>
<stop stop-color="#07867B"/>
</linearGradient>
<linearGradient id="paint3_linear_848_2867" x1="54.1848" y1="80.6338" x2="17.9286" y2="62.1601" gradientUnits="userSpaceOnUse">
<stop stop-color="#059A8E"/>
<stop stop-color="#07867B"/>
</linearGradient>
<linearGradient id="paint4_linear_848_2867" x1="82.7048" y1="80.6338" x2="118.961" y2="62.1601" gradientUnits="userSpaceOnUse">
<stop stop-color="#059A8E"/>
<stop stop-color="#07867B"/>
</linearGradient>
</defs>
</svg>
