<svg width="40" height="40" viewBox="0 0 40 40" fill="none" xmlns="http://www.w3.org/2000/svg">
<path d="M29.999 0C35.5217 0 39.999 4.47728 39.999 10V29.999C39.999 35.5217 35.5217 39.999 29.999 39.999H10C4.47728 39.999 0 35.5217 0 29.999V10C0 4.47728 4.47728 0 10 0H29.999ZM27.1855 8.54102L20.8662 15.8633L15.4092 8.54297H7.49902L16.9463 21.0713L7.98926 31.457H11.8271L18.7373 23.4473L24.7842 31.457H32.498L22.6445 18.2471L31.0195 8.54102H27.1855ZM14.248 10.7461L27.9629 29.1309H25.8379L11.9697 10.7461H14.248Z" fill="black"/>
</svg>
