<svg width="19" height="20" viewBox="0 0 19 20" fill="none" xmlns="http://www.w3.org/2000/svg">
<g clip-path="url(#clip0_77_3380)">
<g clip-path="url(#clip1_77_3380)">
<path d="M4.7909 15.2209C4.56597 14.9984 4.54545 14.6473 4.73058 14.4013L4.78617 14.337L13.5776 5.45105C13.8204 5.20567 14.2161 5.20356 14.4615 5.44633C14.6864 5.66887 14.707 6.01993 14.5218 6.2659L14.4662 6.3302L5.67477 15.2162C5.432 15.4615 5.03628 15.4637 4.7909 15.2209Z" fill="white" stroke="white"/>
<path d="M6.91288 6.56894C6.56772 6.57152 6.2858 6.29381 6.28322 5.94864C6.28086 5.63485 6.51017 5.37334 6.81121 5.32644L6.90351 5.31897L14.018 5.26564C14.3327 5.26328 14.5947 5.49391 14.6406 5.79598L14.6477 5.88858L14.671 13.0039C14.6721 13.349 14.3932 13.6298 14.048 13.6309C13.7342 13.6319 13.4737 13.4015 13.4281 13.1003L13.421 13.0079L13.3994 6.52028L6.91288 6.56894Z" fill="white" stroke="white"/>
</g>
</g>
<defs>
<clipPath id="clip0_77_3380">
<rect width="18" height="19" fill="white" transform="translate(0.5 0.5)"/>
</clipPath>
<clipPath id="clip1_77_3380">
<rect width="18" height="19" fill="white" transform="translate(0.5 0.5)"/>
</clipPath>
</defs>
</svg>
